<svg aria-hidden="true" style="position: absolute; width: 0; height: 0; overflow: hidden;" version="1.1" xmlns="http://www.w3.org/2000/svg" xmlns:xlink="http://www.w3.org/1999/xlink">
<defs>
<symbol id="icon-ac" viewBox="0 0 32 32">
<path d="M30 14c0-2.209-1.795-4-4-4-2.209 0-4 1.789-4 4h2c0-1.105 0.888-2 2-2 1.105 0 2 0.888 2 2 0 1.105-0.89 2-2.004 2h-22.996v2h23.002c2.208 0 3.998-1.795 3.998-4v0zM21 10c0-2.209-1.795-4-4-4-2.209 0-4 1.789-4 3.997v0.003h2c0-1.105 0.888-2 2-2 1.105 0 2 0.888 2 2 0 1.105-0.897 2-2.006 2h-11.994v2h12.004c2.207 0 3.996-1.795 3.996-4v0zM26 23c0 1.657-1.347 3-3 3v0c-1.657 0-3-1.342-3-2.991v-0.009h2c0 0.552 0.444 1 1 1v0c0.552 0 1-0.444 1-1v0c0-0.552-0.449-1-1.007-1h-13.993v-2h14c1.657 0 3 1.347 3 3v0 0z"></path>
</symbol>
<symbol id="icon-adults" viewBox="0 0 32 32">
<path d="M9.067 24.133h-4.4c-0.267 0-0.4-0.133-0.533-0.267s-0.267-0.4-0.133-0.667c0.8-2.267 2.8-3.6 5.067-3.6 2.8 0 5.067-2.4 5.067-5.2s-2.267-5.467-5.067-5.467c-2.8 0-5.067 2.4-5.067 5.333 0 1.333 0.533 2.667 1.333 3.6-1.733 0.933-3.067 2.4-3.867 4.4-0.267 0.933-0.133 2.133 0.533 3.067s1.6 1.467 2.667 1.467h4.4c0.8 0 1.333-0.533 1.333-1.333s-0.533-1.333-1.333-1.333zM6.667 14.267c0-1.467 1.067-2.533 2.4-2.533s2.4 1.2 2.4 2.533c0 1.467-1.067 2.533-2.4 2.533s-2.4-1.2-2.4-2.533z"></path>
<path d="M30.533 21.467c-0.933-2.533-2.8-4.4-4.933-5.467 1.2-1.067 1.867-2.667 1.867-4.533 0-3.467-2.667-6.267-5.867-6.267s-5.867 2.8-5.867 6.267c0 1.733 0.667 3.333 1.867 4.533-2.133 1.067-4 2.933-4.933 5.467-0.667 1.2-0.4 2.533 0.267 3.6s1.867 1.6 3.067 1.6h11.067c1.2 0 2.4-0.667 3.067-1.6 0.8-1.067 0.933-2.4 0.4-3.6zM18.267 11.6c0-2 1.467-3.6 3.2-3.6s3.2 1.6 3.2 3.6-1.467 3.6-3.2 3.6c-1.733 0-3.2-1.733-3.2-3.6zM27.867 23.6c-0.133 0.133-0.4 0.533-0.8 0.533h-11.067c-0.533 0-0.8-0.4-0.8-0.533-0.133-0.133-0.4-0.667-0.133-1.2 1.067-2.8 3.733-4.667 6.533-4.667s5.467 1.867 6.533 4.667c0.133 0.533-0.133 1.067-0.267 1.2z"></path>
</symbol>
<symbol id="icon-alcove" viewBox="0 0 46 32">
<path d="M2.608 1.8h12.409c0.105 0 0.203-0.040 0.278-0.112l1.192-1.163c0.346-0.338 0.807-0.524 1.297-0.524h18.817c0.876 0 1.69 0.425 2.176 1.136l2.255 3.3c0.32 0.468 0.349 1.067 0.077 1.564s-0.8 0.805-1.377 0.805h-9.698v0.956h4.967c1.317 0 2.501 0.763 3.018 1.945l2.908 6.65 2.548 0.994c1.36 0.531 2.24 1.797 2.24 3.227v6.158c0 0.918-0.766 1.666-1.708 1.666h-2.964c-0.345 2.039-2.164 3.599-4.35 3.599s-4.005-1.561-4.35-3.599h-16.203c-0.345 2.039-2.164 3.599-4.35 3.599s-4.005-1.561-4.35-3.599h-5.921c-0.837 0-1.518-0.664-1.518-1.481v-22.576c0-1.403 1.17-2.544 2.608-2.544zM36.692 30.594c1.637 0 2.969-1.299 2.969-2.896s-1.332-2.896-2.969-2.896c-1.637 0-2.969 1.299-2.969 2.896s1.332 2.896 2.969 2.896zM30.034 26.995h2.307c0.006-0.035 0.013-0.070 0.020-0.105 0.005-0.024 0.009-0.047 0.014-0.071 0.012-0.055 0.025-0.11 0.039-0.164 0.003-0.011 0.005-0.023 0.009-0.034 0.017-0.066 0.036-0.13 0.057-0.195 0.006-0.019 0.013-0.037 0.019-0.056 0.015-0.045 0.031-0.090 0.047-0.134 0.009-0.024 0.018-0.047 0.028-0.071 0.015-0.039 0.030-0.078 0.047-0.116 0.010-0.025 0.022-0.050 0.033-0.075 0.016-0.037 0.032-0.072 0.050-0.108 0.013-0.025 0.025-0.050 0.038-0.075 0.017-0.034 0.036-0.069 0.054-0.103 0.013-0.025 0.027-0.049 0.041-0.074 0.019-0.034 0.039-0.067 0.059-0.101 0.014-0.024 0.029-0.047 0.043-0.071 0.022-0.034 0.044-0.067 0.066-0.101 0.015-0.022 0.029-0.044 0.044-0.065 0.025-0.035 0.051-0.070 0.077-0.105 0.013-0.018 0.026-0.037 0.040-0.055 0.036-0.046 0.072-0.090 0.109-0.135 0.005-0.007 0.010-0.014 0.016-0.020 0.043-0.051 0.087-0.1 0.132-0.148 0.014-0.015 0.028-0.029 0.043-0.044 0.032-0.033 0.063-0.066 0.096-0.099 0.018-0.018 0.038-0.035 0.056-0.053 0.029-0.028 0.059-0.056 0.090-0.084 0.020-0.018 0.041-0.036 0.062-0.054 0.030-0.026 0.060-0.051 0.090-0.077l0.066-0.052c0.031-0.024 0.062-0.048 0.093-0.071 0.022-0.017 0.045-0.034 0.069-0.050 0.032-0.023 0.064-0.045 0.097-0.068 0.023-0.015 0.046-0.031 0.069-0.046 0.034-0.023 0.069-0.044 0.104-0.065 0.022-0.014 0.045-0.028 0.068-0.041 0.038-0.023 0.077-0.044 0.116-0.065 0.020-0.011 0.040-0.023 0.059-0.033 0.056-0.029 0.112-0.057 0.168-0.084 0.005-0.002 0.009-0.004 0.013-0.006 0.061-0.029 0.123-0.056 0.186-0.082 0.020-0.008 0.041-0.016 0.061-0.024 0.043-0.017 0.086-0.034 0.13-0.050 0.025-0.009 0.050-0.017 0.075-0.026 0.040-0.014 0.080-0.027 0.12-0.039 0.027-0.008 0.054-0.016 0.082-0.024 0.039-0.011 0.078-0.023 0.118-0.033 0.028-0.007 0.056-0.015 0.085-0.021 0.039-0.009 0.078-0.018 0.118-0.026 0.029-0.006 0.058-0.012 0.087-0.018 0.040-0.007 0.081-0.015 0.122-0.021 0.029-0.005 0.057-0.010 0.086-0.014 0.042-0.006 0.085-0.011 0.128-0.016 0.027-0.003 0.055-0.007 0.082-0.009 0.047-0.004 0.095-0.008 0.143-0.011 0.024-0.002 0.047-0.004 0.070-0.005 0.072-0.004 0.144-0.006 0.216-0.006s0.144 0.002 0.216 0.006c0.024 0.001 0.047 0.003 0.070 0.005 0.048 0.003 0.096 0.006 0.143 0.011 0.028 0.002 0.055 0.006 0.082 0.009 0.043 0.005 0.086 0.010 0.128 0.016 0.029 0.004 0.058 0.008 0.087 0.014 0.041 0.006 0.081 0.014 0.122 0.021 0.029 0.006 0.058 0.012 0.087 0.018 0.040 0.008 0.079 0.017 0.118 0.026 0.029 0.007 0.057 0.014 0.085 0.021 0.039 0.010 0.078 0.021 0.118 0.033 0.028 0.008 0.055 0.016 0.082 0.024 0.040 0.012 0.080 0.026 0.12 0.039 0.025 0.009 0.050 0.017 0.075 0.026 0.044 0.016 0.087 0.033 0.13 0.050 0.020 0.008 0.041 0.016 0.061 0.024 0.062 0.026 0.125 0.053 0.186 0.082 0.005 0.002 0.009 0.005 0.013 0.006 0.057 0.027 0.112 0.055 0.168 0.084 0.020 0.011 0.039 0.022 0.059 0.033 0.039 0.021 0.078 0.043 0.116 0.065 0.023 0.014 0.045 0.028 0.068 0.041 0.035 0.021 0.070 0.043 0.104 0.065 0.023 0.015 0.046 0.031 0.069 0.046 0.033 0.023 0.065 0.044 0.097 0.068 0.023 0.016 0.046 0.033 0.069 0.050 0.031 0.024 0.062 0.047 0.093 0.071l0.066 0.052c0.031 0.025 0.061 0.051 0.090 0.077 0.021 0.018 0.041 0.036 0.062 0.054 0.031 0.028 0.060 0.056 0.090 0.084 0.018 0.017 0.037 0.035 0.056 0.053 0.033 0.033 0.065 0.066 0.096 0.099 0.014 0.015 0.029 0.029 0.043 0.044 0.045 0.048 0.089 0.098 0.132 0.148 0.006 0.007 0.011 0.014 0.016 0.020 0.037 0.044 0.073 0.089 0.109 0.135 0.014 0.018 0.027 0.037 0.040 0.055 0.026 0.035 0.052 0.070 0.077 0.105 0.015 0.021 0.029 0.043 0.044 0.065 0.022 0.034 0.044 0.067 0.066 0.101 0.014 0.024 0.029 0.047 0.043 0.071 0.020 0.033 0.040 0.067 0.059 0.101 0.014 0.025 0.028 0.049 0.041 0.074 0.018 0.034 0.037 0.069 0.054 0.103 0.013 0.025 0.025 0.050 0.038 0.075 0.017 0.036 0.033 0.071 0.050 0.108 0.011 0.025 0.023 0.049 0.033 0.075 0.017 0.038 0.032 0.077 0.047 0.116 0.010 0.024 0.019 0.047 0.028 0.071 0.016 0.044 0.032 0.089 0.047 0.134 0.006 0.019 0.013 0.038 0.019 0.056 0.020 0.064 0.039 0.129 0.056 0.195 0.003 0.011 0.006 0.023 0.009 0.034 0.014 0.055 0.027 0.109 0.039 0.164 0.005 0.024 0.009 0.047 0.014 0.071 0.007 0.035 0.014 0.069 0.020 0.105h2.963c0.147 0 0.266-0.116 0.266-0.26v-2.946h-1.124v-1.406h1.124v-1.806c0-0.851-0.523-1.606-1.333-1.922l-2.697-1.052h-10.209v9.392zM30.034 16.197h9.257l-2.598-5.939c-0.29-0.662-0.954-1.090-1.692-1.090h-4.967v7.030zM11.789 30.594c1.637 0 2.969-1.299 2.969-2.896s-1.332-2.896-2.969-2.896c-0.051 0-0.102 0.001-0.153 0.004-1.364 0.067-2.488 1.038-2.756 2.309-0.010 0.047-0.019 0.095-0.027 0.143-0.015 0.096-0.025 0.193-0.030 0.291-0.003 0.049-0.004 0.099-0.004 0.149 0 1.597 1.332 2.896 2.969 2.896zM1.441 22.383h1.124v1.406h-1.124v3.131c0 0.041 0.035 0.075 0.077 0.075h5.92c0.006-0.035 0.013-0.069 0.020-0.104 0.005-0.024 0.009-0.048 0.014-0.072 0.012-0.054 0.024-0.107 0.038-0.16 0.003-0.012 0.006-0.025 0.009-0.038 0.017-0.065 0.036-0.129 0.056-0.193 0.006-0.020 0.013-0.039 0.020-0.058 0.015-0.044 0.030-0.089 0.046-0.132 0.009-0.025 0.019-0.048 0.028-0.072 0.015-0.038 0.031-0.077 0.046-0.114 0.011-0.026 0.022-0.051 0.034-0.076 0.016-0.036 0.032-0.071 0.050-0.106 0.012-0.026 0.025-0.051 0.038-0.076 0.017-0.034 0.035-0.068 0.054-0.102 0.014-0.025 0.028-0.049 0.042-0.074 0.020-0.034 0.039-0.067 0.059-0.1 0.014-0.024 0.029-0.048 0.044-0.071 0.021-0.034 0.043-0.067 0.066-0.1 0.014-0.023 0.029-0.045 0.044-0.066 0.025-0.035 0.051-0.070 0.076-0.104 0.014-0.019 0.028-0.038 0.042-0.057 0.035-0.044 0.070-0.088 0.106-0.132 0.006-0.008 0.012-0.016 0.018-0.023 0.043-0.051 0.087-0.1 0.132-0.148 0.014-0.015 0.029-0.030 0.043-0.045 0.032-0.033 0.063-0.066 0.096-0.098 0.018-0.018 0.037-0.035 0.056-0.053 0.029-0.028 0.059-0.056 0.089-0.083 0.020-0.018 0.041-0.036 0.062-0.055 0.029-0.025 0.059-0.051 0.090-0.075 0.022-0.018 0.044-0.036 0.066-0.053 0.030-0.024 0.061-0.047 0.092-0.071 0.022-0.017 0.046-0.034 0.069-0.050 0.032-0.023 0.064-0.045 0.096-0.067 0.024-0.016 0.047-0.031 0.070-0.047 0.034-0.023 0.069-0.044 0.103-0.065 0.023-0.014 0.046-0.028 0.069-0.042 0.038-0.023 0.077-0.044 0.116-0.065 0.020-0.011 0.040-0.023 0.061-0.033 0.055-0.029 0.11-0.057 0.167-0.083 0.005-0.002 0.009-0.005 0.014-0.007 0.061-0.029 0.123-0.056 0.186-0.082 0.020-0.008 0.041-0.016 0.061-0.024 0.043-0.017 0.086-0.034 0.13-0.050 0.025-0.009 0.050-0.017 0.076-0.026 0.039-0.014 0.079-0.027 0.119-0.039 0.027-0.008 0.055-0.016 0.082-0.024 0.039-0.011 0.078-0.023 0.118-0.033 0.028-0.007 0.056-0.015 0.085-0.021 0.039-0.009 0.078-0.018 0.118-0.026 0.029-0.006 0.058-0.012 0.087-0.018 0.040-0.007 0.081-0.015 0.122-0.021 0.029-0.005 0.057-0.010 0.086-0.014 0.042-0.006 0.085-0.011 0.128-0.016 0.027-0.003 0.055-0.007 0.082-0.009 0.047-0.004 0.095-0.008 0.143-0.011 0.024-0.002 0.047-0.004 0.070-0.005 0.072-0.004 0.144-0.006 0.216-0.006s0.144 0.002 0.216 0.006c0.024 0.001 0.047 0.003 0.070 0.005 0.048 0.003 0.096 0.006 0.143 0.011 0.028 0.002 0.055 0.006 0.082 0.009 0.043 0.005 0.086 0.010 0.128 0.016 0.029 0.004 0.058 0.008 0.086 0.014 0.041 0.006 0.081 0.014 0.122 0.021 0.029 0.006 0.058 0.012 0.087 0.018 0.040 0.008 0.079 0.017 0.118 0.026 0.029 0.007 0.057 0.014 0.085 0.021 0.039 0.010 0.078 0.021 0.118 0.033 0.027 0.008 0.055 0.016 0.082 0.024 0.040 0.012 0.080 0.026 0.119 0.039 0.025 0.009 0.051 0.017 0.076 0.026 0.044 0.016 0.086 0.033 0.13 0.050 0.020 0.008 0.041 0.016 0.061 0.024 0.062 0.026 0.124 0.053 0.186 0.082 0.005 0.002 0.010 0.005 0.014 0.007 0.056 0.026 0.112 0.054 0.167 0.083 0.021 0.011 0.040 0.022 0.060 0.033 0.039 0.021 0.078 0.043 0.116 0.065 0.023 0.014 0.046 0.028 0.069 0.042 0.035 0.021 0.069 0.042 0.103 0.065 0.023 0.015 0.046 0.031 0.070 0.047 0.032 0.022 0.065 0.044 0.096 0.067 0.023 0.016 0.046 0.033 0.069 0.050 0.031 0.024 0.062 0.047 0.092 0.071 0.023 0.017 0.044 0.035 0.066 0.053 0.031 0.025 0.061 0.050 0.090 0.076 0.021 0.018 0.042 0.036 0.062 0.054 0.030 0.028 0.060 0.056 0.090 0.084 0.018 0.017 0.037 0.035 0.056 0.053 0.032 0.032 0.065 0.065 0.096 0.098 0.014 0.015 0.029 0.029 0.043 0.044 0.045 0.048 0.089 0.098 0.132 0.148 0.006 0.007 0.012 0.015 0.017 0.021 0.036 0.044 0.073 0.088 0.107 0.134 0.014 0.018 0.028 0.037 0.042 0.055 0.026 0.035 0.052 0.070 0.077 0.105 0.015 0.021 0.029 0.044 0.044 0.066 0.023 0.033 0.044 0.066 0.066 0.1 0.015 0.024 0.029 0.047 0.044 0.071 0.020 0.033 0.040 0.067 0.059 0.101 0.014 0.025 0.028 0.049 0.041 0.074 0.019 0.034 0.037 0.069 0.055 0.103 0.013 0.025 0.025 0.050 0.037 0.075 0.017 0.036 0.034 0.072 0.050 0.108 0.012 0.025 0.023 0.049 0.033 0.075 0.017 0.038 0.032 0.077 0.047 0.116 0.009 0.024 0.018 0.047 0.028 0.071 0.017 0.045 0.032 0.090 0.047 0.135 0.006 0.019 0.013 0.037 0.019 0.055 0.020 0.064 0.039 0.129 0.057 0.195 0.002 0.010 0.005 0.021 0.007 0.031 0.014 0.056 0.028 0.111 0.040 0.168 0.005 0.023 0.009 0.046 0.013 0.069 0.007 0.035 0.014 0.070 0.021 0.106h12.453v-20.893c0-0.388 0.323-0.703 0.721-0.703h10.419c0.018 0 0.073 0 0.107-0.062s0.004-0.106-0.006-0.12l-2.255-3.3c-0.218-0.319-0.583-0.51-0.977-0.51h-18.817c-0.105 0-0.204 0.040-0.278 0.112l-1.192 1.163c-0.346 0.338-0.807 0.524-1.297 0.524h-12.409c-0.643 0-1.167 0.511-1.167 1.138v18.039z"></path>
<path d="M20.116 7.198h4.558c0.921 0 1.67 0.731 1.67 1.629v15.046c0 0.388-0.323 0.703-0.721 0.703h-6.456c-0.398 0-0.721-0.315-0.721-0.703v-15.046c-0.001-0.899 0.748-1.629 1.669-1.629zM19.887 23.17h5.015v-8.267h-5.015v8.267zM19.887 13.497h5.015v-4.669c0-0.123-0.103-0.223-0.229-0.223h-4.558c-0.126 0-0.229 0.1-0.229 0.223v4.669h0.001zM5.536 7.198h8.814c1.019 0 1.848 0.809 1.848 1.802v4.1c0 0.994-0.829 1.802-1.848 1.802h-8.815c-1.019 0-1.848-0.809-1.848-1.802v-4.1c0.001-0.994 0.83-1.802 1.848-1.802zM5.129 13.1c0 0.218 0.182 0.396 0.406 0.396h8.814c0.224 0 0.406-0.178 0.406-0.396v-4.1c0-0.218-0.182-0.396-0.406-0.396h-8.815c-0.224 0-0.406 0.178-0.406 0.396v4.1h0.001z"></path>
</symbol>
<symbol id="icon-automatic" viewBox="0 0 31 32">
<path d="M4.254 0.768c-1.325 0.242-2.443 1.055-3.045 2.214-0.357 0.689-0.46 1.124-0.462 1.948-0.001 0.571 0.019 0.764 0.115 1.097 0.398 1.377 1.377 2.434 2.671 2.886l0.345 0.121 0.025 2.249 0.026 2.248 0.192 0.402c0.271 0.569 0.699 1.003 1.266 1.284l0.435 0.216 4.373 0.051 0.025 5.342 0.026 5.34 0.191 0.401c0.322 0.673 0.898 1.196 1.567 1.419 0.308 0.103 0.42 0.107 3.106 0.107l2.789-0.001 0.203-0.115c0.322-0.187 0.535-0.53 0.535-0.923 0-0.133-0.024-0.26-0.069-0.377l0.002 0.007c-0.105-0.276-0.415-0.568-0.68-0.641-0.126-0.034-1.087-0.055-2.677-0.055-2.69 0-2.696-0.001-2.824-0.281-0.046-0.102-0.062-1.381-0.062-5.191v-5.057h5.53l0.226-0.119c0.332-0.178 0.554-0.522 0.554-0.918 0-0.268-0.102-0.513-0.269-0.697l0.001 0.001c-0.103-0.111-0.224-0.204-0.359-0.274l-0.007-0.003c-0.196-0.088-0.504-0.092-5.896-0.094-6.214-0.001-5.912 0.013-6.039-0.294-0.043-0.103-0.056-0.708-0.046-2.091l0.014-1.947 0.256-0.087c1.297-0.441 2.278-1.467 2.705-2.827 0.104-0.332 0.121-0.487 0.12-1.153-0.002-0.903-0.066-1.199-0.412-1.901-0.536-1.063-1.479-1.854-2.618-2.177l-0.030-0.007c-0.424-0.122-1.394-0.178-1.801-0.103zM5.688 2.989c1.135 0.421 1.665 1.804 1.111 2.901-0.166 0.327-0.621 0.774-0.952 0.933-1.254 0.603-2.776-0.211-2.971-1.588-0.222-1.574 1.314-2.801 2.812-2.246zM23.443 8.724c-0.256 0.122-0.449 0.34-0.536 0.606l-0.002 0.007c-0.038 0.13-0.051 1.506-0.040 4.405l0.015 4.216 0.147 0.212c0.174 0.252 0.578 0.473 0.866 0.473 0.371 0 0.762-0.242 0.955-0.59 0.071-0.127 0.090-0.366 0.111-1.362l0.026-1.207 1.026-0.031c1.079-0.033 1.24-0.062 1.741-0.309 0.675-0.34 1.214-0.868 1.559-1.514l0.009-0.019c0.261-0.499 0.361-0.924 0.363-1.519 0.001-0.659-0.075-1.005-0.343-1.56-0.439-0.886-1.228-1.543-2.181-1.797l-0.024-0.005c-0.352-0.089-0.569-0.101-1.941-0.1-1.388 0.001-1.567 0.011-1.753 0.095zM26.719 10.836c0.684 0.256 1.035 1.039 0.757 1.685-0.139 0.324-0.518 0.683-0.809 0.77-0.117 0.036-0.523 0.062-0.955 0.062h-0.751v-2.619h0.743c0.616 0 0.789 0.017 1.016 0.102zM23.445 22.937c-0.219 0.109-0.391 0.286-0.491 0.502l-0.003 0.006c-0.089 0.193-0.095 0.41-0.096 3.625l-0.001 3.419 0.12 0.226c0.066 0.124 0.218 0.296 0.339 0.38l0.218 0.154h1.318c1.22 0 1.349-0.008 1.723-0.117 1.207-0.348 2.142-1.116 2.674-2.194 0.347-0.7 0.411-0.997 0.412-1.9 0.001-0.667-0.015-0.821-0.12-1.153-0.444-1.416-1.434-2.414-2.857-2.882-0.332-0.109-0.465-0.12-1.721-0.134-1.18-0.014-1.382-0.006-1.515 0.066zM26.007 25.037c0.397 0.104 0.685 0.28 0.991 0.604 0.791 0.839 0.763 2.072-0.064 2.899-0.366 0.366-0.74 0.533-1.336 0.599-0.256 0.027-0.505 0.036-0.552 0.018-0.078-0.031-0.085-0.217-0.085-2.116v-2.081h0.375c0.206 0 0.508 0.034 0.672 0.077z"></path>
</symbol>
<symbol id="icon-beds" viewBox="0 0 32 32">
<path d="M7.526 5.016c-1.166 0.306-2.214 1.36-2.514 2.531-0.101 0.394-0.106 0.592-0.106 3.605v3.189l-0.278 0.141c-0.997 0.499-1.885 1.477-2.35 2.586-0.381 0.906-0.374 0.811-0.397 5.17-0.024 4.333-0.035 4.171 0.317 4.531 0.243 0.25 0.445 0.336 0.784 0.339 0.011 0 0.023 0.001 0.036 0.001 0.295 0 0.563-0.115 0.762-0.302l-0.001 0.001c0.222-0.202 0.293-0.41 0.328-0.96 0.029-0.464 0.048-0.539 0.155-0.627 0.118-0.096 0.486-0.099 11.738-0.099s11.619 0.003 11.738 0.099c0.107 0.088 0.126 0.163 0.155 0.627 0.035 0.55 0.106 0.758 0.328 0.96 0.227 0.206 0.485 0.304 0.797 0.301 0.014 0.001 0.030 0.001 0.046 0.001 0.295 0 0.559-0.131 0.737-0.339l0.001-0.001c0.352-0.36 0.341-0.2 0.317-4.533-0.024-4.355-0.018-4.266-0.397-5.168-0.466-1.109-1.354-2.086-2.35-2.586l-0.278-0.141v-3.189c0-3.013-0.005-3.211-0.106-3.605-0.302-1.182-1.352-2.232-2.534-2.534-0.408-0.104-0.59-0.106-8.475-0.102-7.789 0.002-8.070 0.005-8.451 0.106zM24.066 7.245c0.299 0.147 0.654 0.531 0.742 0.802 0.074 0.226 0.133 3.443 0.062 3.413-0.845-0.383-1.009-0.464-1.172-0.545l0.674 0.303c-0.231-0.117-0.499-0.213-0.78-0.274l-0.023-0.004c-0.557-0.093-5.792-0.078-6.243 0.018-0.427 0.103-0.802 0.274-1.134 0.503l0.011-0.007-0.202 0.133-0.254-0.163c-0.338-0.23-0.737-0.399-1.167-0.483l-0.020-0.003c-0.478-0.077-5.666-0.075-6.13 0.003-0.304 0.066-0.572 0.162-0.823 0.287l0.020-0.009-0.494 0.24c-0.059 0.027-0.048-2.867 0.014-3.197 0.111-0.53 0.505-0.947 1.014-1.089l0.010-0.002c0.226-0.054 1.835-0.066 7.962-0.059l7.68 0.010 0.253 0.125zM14.373 13.219c0.248 0.114 0.315 0.184 0.427 0.451l0.082 0.197h-6.773l0.056-0.147c0.106-0.228 0.28-0.41 0.496-0.522l0.006-0.003c0.126-0.056 0.715-0.072 2.826-0.072 2.467 0 2.683 0.006 2.88 0.096zM23.322 13.194c0.228 0.111 0.408 0.295 0.511 0.52l0.003 0.007 0.056 0.147h-6.773l0.082-0.197c0.112-0.267 0.179-0.338 0.427-0.451 0.197-0.090 0.416-0.098 2.867-0.098 2.139-0.002 2.69 0.013 2.827 0.072zM25.523 16.165c0.702 0.126 1.499 0.666 1.893 1.28 0.096 0.149 0.235 0.43 0.31 0.626l0.139 0.357 0.016 2.226 0.018 2.227h-23.792v-2.043c0-1.227 0.022-2.17 0.058-2.36 0.205-1.133 1.238-2.139 2.395-2.333 0.074-0.013 4.299-0.026 9.39-0.030 6.403-0.005 9.354 0.011 9.573 0.051z"></path>
</symbol>
<symbol id="icon-calendar" viewBox="0 0 32 32">
<path stroke-linejoin="round" stroke-linecap="round" stroke-miterlimit="4" stroke-width="2.4" d="M25.333 5.333h-18.667c-1.473 0-2.667 1.194-2.667 2.667v18.667c0 1.473 1.194 2.667 2.667 2.667h18.667c1.473 0 2.667-1.194 2.667-2.667v-18.667c0-1.473-1.194-2.667-2.667-2.667z"></path>
<path stroke-linejoin="round" stroke-linecap="round" stroke-miterlimit="4" stroke-width="2.4" d="M21.333 2.667v5.333"></path>
<path stroke-linejoin="round" stroke-linecap="round" stroke-miterlimit="4" stroke-width="2.4" d="M10.667 2.667v5.333"></path>
<path stroke-linejoin="round" stroke-linecap="round" stroke-miterlimit="4" stroke-width="2.4" d="M4 13.333h24"></path>
</symbol>
<symbol id="icon-CD" viewBox="0 0 32 32">
<path d="M14.72 2.859c-1.77 0.213-3.034 0.578-4.507 1.298-1.446 0.709-2.344 1.354-3.523 2.533s-1.824 2.077-2.533 3.523c-0.385 0.741-0.713 1.602-0.939 2.504l-0.018 0.083c-0.296 1.189-0.347 1.659-0.347 3.2s0.051 2.011 0.347 3.2c0.23 0.928 0.496 1.645 0.957 2.587 0.709 1.446 1.354 2.344 2.533 3.523s2.077 1.824 3.523 2.533c0.741 0.385 1.602 0.713 2.504 0.939l0.083 0.018c1.189 0.296 1.659 0.347 3.2 0.347s2.011-0.051 3.2-0.347c1.868-0.488 3.499-1.303 4.913-2.387l-0.033 0.024c0.55-0.414 1.942-1.806 2.357-2.357 1.306-1.697 2.229-3.756 2.602-6.001l0.011-0.079c0.077-0.464 0.098-0.883 0.098-2 0-1.541-0.051-2.011-0.347-3.2-0.488-1.868-1.303-3.499-2.387-4.913l0.024 0.033c-0.414-0.55-1.806-1.942-2.357-2.357-1.464-1.104-3.141-1.923-4.8-2.346-1.094-0.28-1.621-0.342-3.040-0.362-0.209-0.006-0.455-0.009-0.702-0.009-0.288 0-0.574 0.004-0.86 0.013l0.042-0.001zM17.547 5.315c3.373 0.474 6.371 2.582 7.994 5.626 0.787 1.468 1.25 3.212 1.25 5.063 0 0.996-0.134 1.961-0.384 2.877l0.018-0.076c-0.906 3.31-3.277 5.979-6.419 7.222-1.191 0.484-2.572 0.765-4.018 0.765-0.926 0-1.824-0.115-2.683-0.331l0.075 0.016c-3.141-0.81-5.681-2.913-7.060-5.694l-0.028-0.063c-0.679-1.333-1.076-2.906-1.076-4.573 0-0.052 0-0.103 0.001-0.155l-0 0.008c-0-0.031-0.001-0.068-0.001-0.105 0-2.203 0.679-4.247 1.838-5.935l-0.023 0.036c1.96-2.907 5.241-4.793 8.961-4.793 0.549 0 1.088 0.041 1.615 0.12l-0.059-0.007zM15.149 7.522c-3.074 0.317-5.638 2.228-6.873 4.884l-0.022 0.052c-0.454 0.99-0.646 1.758-0.744 2.966l-0.064 0.784 0.157 0.302c0.095 0.188 0.226 0.345 0.386 0.466l0.003 0.002c0.214 0.155 0.264 0.168 0.67 0.168 0.4 0 0.461-0.014 0.666-0.157 0.374-0.259 0.493-0.525 0.541-1.221 0.115-1.637 0.666-2.918 1.726-4.029 1.074-1.122 2.478-1.752 4.174-1.872 0.696-0.048 0.962-0.166 1.221-0.541 0.142-0.205 0.157-0.266 0.157-0.661s-0.014-0.458-0.157-0.662c-0.235-0.339-0.547-0.499-1.010-0.515-0.042-0.001-0.091-0.001-0.14-0.001-0.244 0-0.485 0.012-0.722 0.036l0.030-0.002zM15.218 11.542c-1.781 0.339-3.126 1.579-3.598 3.31-0.163 0.603-0.165 1.685-0.002 2.294 0.45 1.572 1.663 2.786 3.202 3.227l0.033 0.008c0.605 0.162 1.69 0.162 2.294 0 1.277-0.365 2.309-1.224 2.893-2.353l0.012-0.026c0.338-0.674 0.443-1.152 0.443-2.003 0-0.566-0.024-0.811-0.114-1.147-0.414-1.547-1.71-2.84-3.235-3.23-0.55-0.139-1.427-0.176-1.93-0.080zM16.554 13.947c0.744 0.194 1.373 0.859 1.531 1.621 0.022 0.117 0.035 0.252 0.035 0.391 0 0.843-0.472 1.576-1.167 1.948l-0.012 0.006c-0.272 0.134-0.592 0.213-0.93 0.213-0.743 0-1.398-0.38-1.78-0.956l-0.005-0.008c-1.075-1.619 0.438-3.707 2.328-3.214z"></path>
</symbol>
<symbol id="icon-airConditioner" viewBox="0 0 32 32">
<path d="M2.398 0.101c-1.104 0.352-2.034 1.304-2.325 2.379-0.059 0.218-0.072 1.448-0.074 6.675 0 6.114 0.005 6.424 0.099 6.73 0.336 1.077 1.272 1.997 2.381 2.338 0.307 0.094 0.854 0.098 13.52 0.098s13.213-0.003 13.52-0.098c1.109-0.341 2.045-1.261 2.381-2.338 0.094-0.306 0.099-0.618 0.099-6.733 0-7.122 0.026-6.613-0.363-7.365-0.261-0.507-0.917-1.163-1.424-1.424-0.768-0.397 0.534-0.363-14.235-0.36-12.557 0.002-13.301 0.008-13.579 0.098zM29.138 2.507c0.109 0.074 0.262 0.227 0.344 0.341l0.146 0.21v12.17l-0.131 0.186c-0.119 0.193-0.294 0.342-0.502 0.426l-0.007 0.002c-0.192 0.091-0.341 0.102-1.427 0.104l-1.213 0.002-0.002-1.8c0-1.84-0.032-2.261-0.214-2.779-0.352-1.002-1.307-1.869-2.398-2.176-0.328-0.094-0.726-0.099-7.733-0.099-6.982 0-7.405 0.006-7.728 0.098-1.206 0.338-2.14 1.258-2.494 2.429l-0.007 0.025c-0.066 0.221-0.086 0.672-0.104 2.288l-0.022 2.014-1.208-0.002c-1.058-0.002-1.237-0.014-1.424-0.099-0.28-0.128-0.547-0.408-0.613-0.643-0.034-0.12-0.053-2.376-0.053-6.098 0-4.856 0.013-5.939 0.072-6.082 0.133-0.259 0.336-0.466 0.585-0.6l0.007-0.004c0.133-0.058 2.442-0.069 13.046-0.059l12.883 0.011 0.197 0.134zM23.179 11.546c0.169 0.053 0.314 0.14 0.434 0.253l-0-0c0.326 0.339 0.334 0.389 0.334 2.36v1.789h-15.894l0.002-1.8c0.002-1.992 0.010-2.050 0.358-2.378 0.328-0.307 0.029-0.296 7.565-0.299 5.96-0.003 6.973 0.008 7.202 0.075zM8.792 21.714c-0.16 0.059-0.298 0.142-0.418 0.245l0.002-0.002c-0.405 0.346-0.4 0.322-0.429 2.203l-0.027 1.68-0.146 0.312c-0.352 0.75-1.030 1.208-1.794 1.208-0.685 0-1.182 0.28-1.37 0.773-0.053 0.129-0.084 0.279-0.084 0.436 0 0.455 0.26 0.85 0.639 1.044l0.007 0.003c0.29 0.154 0.304 0.155 0.934 0.125 0.718-0.034 1.099-0.122 1.67-0.384 1.353-0.637 2.316-1.905 2.514-3.415l0.002-0.022c0.035-0.27 0.053-1.045 0.042-1.92-0.018-1.579-0.026-1.632-0.33-1.965-0.264-0.293-0.81-0.437-1.214-0.322zM15.619 21.725c-0.262 0.101-0.478 0.276-0.626 0.499l-0.003 0.005-0.138 0.198-0.014 4.376-0.013 4.376 0.123 0.237c0.077 0.147 0.222 0.304 0.381 0.411 0.234 0.158 0.291 0.173 0.67 0.173s0.437-0.014 0.67-0.173c0.157-0.106 0.284-0.243 0.376-0.404l0.126-0.239v-4.318c0-3.898-0.008-4.334-0.088-4.501-0.129-0.247-0.322-0.446-0.556-0.58l-0.007-0.004c-0.157-0.068-0.339-0.107-0.531-0.107-0.132 0-0.26 0.019-0.381 0.054l0.010-0.002zM22.483 21.733c-0.379 0.129-0.668 0.433-0.774 0.812l-0.002 0.008c-0.088 0.315-0.067 3.005 0.026 3.542 0.245 1.459 1.186 2.654 2.463 3.25l0.027 0.011c0.571 0.262 0.952 0.35 1.67 0.384 0.63 0.030 0.645 0.029 0.934-0.125 0.394-0.208 0.6-0.514 0.63-0.934 0.058-0.805-0.504-1.322-1.438-1.322-0.387 0-0.805-0.138-1.106-0.363-0.301-0.212-0.537-0.498-0.683-0.832l-0.005-0.013-0.146-0.312-0.027-1.68c-0.029-1.882-0.024-1.858-0.427-2.203-0.2-0.18-0.467-0.291-0.759-0.291-0.138 0-0.269 0.024-0.391 0.069l0.008-0.003z"></path>
</symbol>
<symbol id="icon-freezer" viewBox="0 0 32 32">
<path d="M7.973 2.027c-1.040 0.208-1.907 1-2.28 2.080l-0.12 0.346-0.014 10.32c-0.010 6.69 0.003 10.512 0.038 10.862 0.029 0.299 0.102 0.669 0.16 0.822 0.234 0.613 0.818 1.291 1.358 1.574 0.266 0.139 0.288 0.165 0.312 0.371 0.062 0.558 0.522 1.166 1.093 1.446 0.306 0.15 0.314 0.15 1.52 0.168 1.376 0.019 1.592-0.018 2.038-0.333 0.346-0.246 0.589-0.562 0.728-0.946l0.115-0.312h6.17l0.035 0.146c0.122 0.504 0.584 1.053 1.086 1.29 0.291 0.136 0.304 0.138 1.627 0.138s1.336-0.002 1.627-0.138c0.558-0.262 0.97-0.784 1.094-1.381 0.058-0.282 0.072-0.299 0.376-0.477 0.638-0.371 1.162-1.043 1.39-1.792 0.094-0.306 0.099-0.782 0.099-10.986 0-8.862-0.013-10.717-0.074-10.96-0.264-1.059-1.251-2.022-2.29-2.235-0.334-0.069-15.746-0.074-16.091-0.005zM23.971 4.234c0.125 0.104 0.226 0.232 0.299 0.376l0.003 0.007c0.096 0.218 0.099 0.398 0.086 3.846l-0.013 3.618h-16.694v-7.368l0.147-0.221c0.093-0.132 0.208-0.242 0.342-0.325l0.005-0.003c0.197-0.104 0.309-0.106 7.91-0.094l7.71 0.011 0.203 0.154zM9.893 5.594c-0.244 0.107-0.433 0.303-0.527 0.545l-0.002 0.007c-0.070 0.168-0.083 0.534-0.083 2.422 0 2.166 0.003 2.232 0.114 2.461 0.163 0.325 0.494 0.545 0.876 0.545 0.013 0 0.027-0 0.040-0.001l-0.002 0c0.008 0 0.018 0 0.027 0 0.156 0 0.305-0.028 0.442-0.080l-0.009 0.003c0.246-0.151 0.434-0.377 0.533-0.646l0.003-0.009c0.074-0.27 0.075-4.344 0-4.613-0.162-0.584-0.85-0.893-1.411-0.635zM24.347 19.923v5.765l-0.144 0.216c-0.097 0.138-0.223 0.25-0.37 0.327l-0.006 0.003-0.234 0.114h-7.586c-6.253 0-7.614-0.013-7.757-0.072-0.271-0.128-0.475-0.36-0.564-0.642l-0.002-0.008c-0.064-0.258-0.086-11.394-0.022-11.458 0.019-0.019 3.782-0.029 8.36-0.021l8.325 0.013v5.763zM10.056 14.406c-0.299 0.076-0.54 0.277-0.671 0.541l-0.003 0.006c-0.093 0.203-0.101 0.386-0.101 2.459 0 2.059 0.008 2.258 0.099 2.456 0.342 0.754 1.382 0.808 1.826 0.094l0.126-0.203v-4.64l-0.141-0.24c-0.184-0.304-0.513-0.504-0.888-0.504-0.088 0-0.173 0.011-0.255 0.032l0.007-0.002z"></path>
</symbol>
<symbol id="icon-fully" viewBox="0 0 46 32">
<path d="M2.608 1.8h12.409c0.105 0 0.203-0.040 0.278-0.112l1.192-1.163c0.346-0.338 0.807-0.524 1.297-0.524h18.817c0.876 0 1.69 0.425 2.176 1.136l2.255 3.3c0.32 0.468 0.349 1.067 0.077 1.564s-0.8 0.805-1.377 0.805h-9.698v0.956h4.967c1.317 0 2.501 0.763 3.018 1.945l2.908 6.65 2.548 0.994c1.36 0.531 2.24 1.797 2.24 3.227v6.158c0 0.918-0.766 1.666-1.708 1.666h-2.964c-0.345 2.039-2.164 3.599-4.35 3.599s-4.005-1.561-4.35-3.599h-16.203c-0.345 2.039-2.164 3.599-4.35 3.599s-4.005-1.561-4.35-3.599h-5.921c-0.837 0-1.518-0.664-1.518-1.481v-22.576c0-1.403 1.17-2.544 2.608-2.544zM36.692 30.594c1.637 0 2.969-1.299 2.969-2.896s-1.332-2.896-2.969-2.896c-1.637 0-2.969 1.299-2.969 2.896s1.332 2.896 2.969 2.896zM30.034 26.995h2.307c0.006-0.035 0.013-0.070 0.020-0.105 0.005-0.024 0.009-0.047 0.014-0.071 0.012-0.055 0.025-0.11 0.039-0.164 0.003-0.011 0.005-0.023 0.009-0.034 0.017-0.066 0.036-0.13 0.057-0.195 0.006-0.019 0.013-0.037 0.019-0.056 0.015-0.045 0.031-0.090 0.047-0.134 0.009-0.024 0.018-0.047 0.028-0.071 0.015-0.039 0.030-0.078 0.047-0.116 0.010-0.025 0.022-0.050 0.033-0.075 0.016-0.037 0.032-0.072 0.050-0.108 0.013-0.025 0.025-0.050 0.038-0.075 0.017-0.034 0.036-0.069 0.054-0.103 0.013-0.025 0.027-0.049 0.041-0.074 0.019-0.034 0.039-0.067 0.059-0.101 0.014-0.024 0.029-0.047 0.043-0.071 0.022-0.034 0.044-0.067 0.066-0.101 0.015-0.022 0.029-0.044 0.044-0.065 0.025-0.035 0.051-0.070 0.077-0.105 0.013-0.018 0.026-0.037 0.040-0.055 0.036-0.046 0.072-0.090 0.109-0.135 0.005-0.007 0.010-0.014 0.016-0.020 0.043-0.051 0.087-0.1 0.132-0.148 0.014-0.015 0.028-0.029 0.043-0.044 0.032-0.033 0.063-0.066 0.096-0.099 0.018-0.018 0.038-0.035 0.056-0.053 0.029-0.028 0.059-0.056 0.090-0.084 0.020-0.018 0.041-0.036 0.062-0.054 0.030-0.026 0.060-0.051 0.090-0.077l0.066-0.052c0.031-0.024 0.062-0.048 0.093-0.071 0.022-0.017 0.045-0.034 0.069-0.050 0.032-0.023 0.064-0.045 0.097-0.068 0.023-0.015 0.046-0.031 0.069-0.046 0.034-0.023 0.069-0.044 0.104-0.065 0.022-0.014 0.045-0.028 0.068-0.041 0.038-0.023 0.077-0.044 0.116-0.065 0.020-0.011 0.040-0.023 0.059-0.033 0.056-0.029 0.112-0.057 0.168-0.084 0.005-0.002 0.009-0.004 0.013-0.006 0.061-0.029 0.123-0.056 0.186-0.082 0.020-0.008 0.041-0.016 0.061-0.024 0.043-0.017 0.086-0.034 0.13-0.050 0.025-0.009 0.050-0.017 0.075-0.026 0.040-0.014 0.080-0.027 0.12-0.039 0.027-0.008 0.054-0.016 0.082-0.024 0.039-0.011 0.078-0.023 0.118-0.033 0.028-0.007 0.056-0.015 0.085-0.021 0.039-0.009 0.078-0.018 0.118-0.026 0.029-0.006 0.058-0.012 0.087-0.018 0.040-0.007 0.081-0.015 0.122-0.021 0.029-0.005 0.057-0.010 0.086-0.014 0.042-0.006 0.085-0.011 0.128-0.016 0.027-0.003 0.055-0.007 0.082-0.009 0.047-0.004 0.095-0.008 0.143-0.011 0.024-0.002 0.047-0.004 0.070-0.005 0.072-0.004 0.144-0.006 0.216-0.006s0.144 0.002 0.216 0.006c0.024 0.001 0.047 0.003 0.070 0.005 0.048 0.003 0.096 0.006 0.143 0.011 0.028 0.002 0.055 0.006 0.082 0.009 0.043 0.005 0.086 0.010 0.128 0.016 0.029 0.004 0.058 0.008 0.087 0.014 0.041 0.006 0.081 0.014 0.122 0.021 0.029 0.006 0.058 0.012 0.087 0.018 0.040 0.008 0.079 0.017 0.118 0.026 0.029 0.007 0.057 0.014 0.085 0.021 0.039 0.010 0.078 0.021 0.118 0.033 0.028 0.008 0.055 0.016 0.082 0.024 0.040 0.012 0.080 0.026 0.12 0.039 0.025 0.009 0.050 0.017 0.075 0.026 0.044 0.016 0.087 0.033 0.13 0.050 0.020 0.008 0.041 0.016 0.061 0.024 0.062 0.026 0.125 0.053 0.186 0.082 0.005 0.002 0.009 0.005 0.013 0.006 0.057 0.027 0.112 0.055 0.168 0.084 0.020 0.011 0.039 0.022 0.059 0.033 0.039 0.021 0.078 0.043 0.116 0.065 0.023 0.014 0.045 0.028 0.068 0.041 0.035 0.021 0.070 0.043 0.104 0.065 0.023 0.015 0.046 0.031 0.069 0.046 0.033 0.023 0.065 0.044 0.097 0.068 0.023 0.016 0.046 0.033 0.069 0.050 0.031 0.024 0.062 0.047 0.093 0.071l0.066 0.052c0.031 0.025 0.061 0.051 0.090 0.077 0.021 0.018 0.041 0.036 0.062 0.054 0.031 0.028 0.060 0.056 0.090 0.084 0.018 0.017 0.037 0.035 0.056 0.053 0.033 0.033 0.065 0.066 0.096 0.099 0.014 0.015 0.029 0.029 0.043 0.044 0.045 0.048 0.089 0.098 0.132 0.148 0.006 0.007 0.011 0.014 0.016 0.020 0.037 0.044 0.073 0.089 0.109 0.135 0.014 0.018 0.027 0.037 0.040 0.055 0.026 0.035 0.052 0.070 0.077 0.105 0.015 0.021 0.029 0.043 0.044 0.065 0.022 0.034 0.044 0.067 0.066 0.101 0.014 0.024 0.029 0.047 0.043 0.071 0.020 0.033 0.040 0.067 0.059 0.101 0.014 0.025 0.028 0.049 0.041 0.074 0.018 0.034 0.037 0.069 0.054 0.103 0.013 0.025 0.025 0.050 0.038 0.075 0.017 0.036 0.033 0.071 0.050 0.108 0.011 0.025 0.023 0.049 0.033 0.075 0.017 0.038 0.032 0.077 0.047 0.116 0.010 0.024 0.019 0.047 0.028 0.071 0.016 0.044 0.032 0.089 0.047 0.134 0.006 0.019 0.013 0.038 0.019 0.056 0.020 0.064 0.039 0.129 0.056 0.195 0.003 0.011 0.006 0.023 0.009 0.034 0.014 0.055 0.027 0.109 0.039 0.164 0.005 0.024 0.009 0.047 0.014 0.071 0.007 0.035 0.014 0.069 0.020 0.105h2.963c0.147 0 0.266-0.116 0.266-0.26v-2.946h-1.124v-1.406h1.124v-1.806c0-0.851-0.523-1.606-1.333-1.922l-2.697-1.052h-10.209v9.392zM30.034 16.197h9.257l-2.598-5.939c-0.29-0.662-0.954-1.090-1.692-1.090h-4.967v7.030zM11.789 30.594c1.637 0 2.969-1.299 2.969-2.896s-1.332-2.896-2.969-2.896c-0.051 0-0.102 0.001-0.153 0.004-1.364 0.067-2.488 1.038-2.756 2.309-0.010 0.047-0.019 0.095-0.027 0.143-0.015 0.096-0.025 0.193-0.030 0.291-0.003 0.049-0.004 0.099-0.004 0.149 0 1.597 1.332 2.896 2.969 2.896zM1.441 22.383h1.124v1.406h-1.124v3.131c0 0.041 0.035 0.075 0.077 0.075h5.92c0.006-0.035 0.013-0.069 0.020-0.104 0.005-0.024 0.009-0.048 0.014-0.072 0.012-0.054 0.024-0.107 0.038-0.16 0.003-0.012 0.006-0.025 0.009-0.038 0.017-0.065 0.036-0.129 0.056-0.193 0.006-0.020 0.013-0.039 0.020-0.058 0.015-0.044 0.030-0.089 0.046-0.132 0.009-0.025 0.019-0.048 0.028-0.072 0.015-0.038 0.031-0.077 0.046-0.114 0.011-0.026 0.022-0.051 0.034-0.076 0.016-0.036 0.032-0.071 0.050-0.106 0.012-0.026 0.025-0.051 0.038-0.076 0.017-0.034 0.035-0.068 0.054-0.102 0.014-0.025 0.028-0.049 0.042-0.074 0.020-0.034 0.039-0.067 0.059-0.1 0.014-0.024 0.029-0.048 0.044-0.071 0.021-0.034 0.043-0.067 0.066-0.1 0.014-0.023 0.029-0.045 0.044-0.066 0.025-0.035 0.051-0.070 0.076-0.104 0.014-0.019 0.028-0.038 0.042-0.057 0.035-0.044 0.070-0.088 0.106-0.132 0.006-0.008 0.012-0.016 0.018-0.023 0.043-0.051 0.087-0.1 0.132-0.148 0.014-0.015 0.029-0.030 0.043-0.045 0.032-0.033 0.063-0.066 0.096-0.098 0.018-0.018 0.037-0.035 0.056-0.053 0.029-0.028 0.059-0.056 0.089-0.083 0.020-0.018 0.041-0.036 0.062-0.055 0.029-0.025 0.059-0.051 0.090-0.075 0.022-0.018 0.044-0.036 0.066-0.053 0.030-0.024 0.061-0.047 0.092-0.071 0.022-0.017 0.046-0.034 0.069-0.050 0.032-0.023 0.064-0.045 0.096-0.067 0.024-0.016 0.047-0.031 0.070-0.047 0.034-0.023 0.069-0.044 0.103-0.065 0.023-0.014 0.046-0.028 0.069-0.042 0.038-0.023 0.077-0.044 0.116-0.065 0.020-0.011 0.040-0.023 0.061-0.033 0.055-0.029 0.11-0.057 0.167-0.083 0.005-0.002 0.009-0.005 0.014-0.007 0.061-0.029 0.123-0.056 0.186-0.082 0.020-0.008 0.041-0.016 0.061-0.024 0.043-0.017 0.086-0.034 0.13-0.050 0.025-0.009 0.050-0.017 0.076-0.026 0.039-0.014 0.079-0.027 0.119-0.039 0.027-0.008 0.055-0.016 0.082-0.024 0.039-0.011 0.078-0.023 0.118-0.033 0.028-0.007 0.056-0.015 0.085-0.021 0.039-0.009 0.078-0.018 0.118-0.026 0.029-0.006 0.058-0.012 0.087-0.018 0.040-0.007 0.081-0.015 0.122-0.021 0.029-0.005 0.057-0.010 0.086-0.014 0.042-0.006 0.085-0.011 0.128-0.016 0.027-0.003 0.055-0.007 0.082-0.009 0.047-0.004 0.095-0.008 0.143-0.011 0.024-0.002 0.047-0.004 0.070-0.005 0.072-0.004 0.144-0.006 0.216-0.006s0.144 0.002 0.216 0.006c0.024 0.001 0.047 0.003 0.070 0.005 0.048 0.003 0.096 0.006 0.143 0.011 0.028 0.002 0.055 0.006 0.082 0.009 0.043 0.005 0.086 0.010 0.128 0.016 0.029 0.004 0.058 0.008 0.086 0.014 0.041 0.006 0.081 0.014 0.122 0.021 0.029 0.006 0.058 0.012 0.087 0.018 0.040 0.008 0.079 0.017 0.118 0.026 0.029 0.007 0.057 0.014 0.085 0.021 0.039 0.010 0.078 0.021 0.118 0.033 0.027 0.008 0.055 0.016 0.082 0.024 0.040 0.012 0.080 0.026 0.119 0.039 0.025 0.009 0.051 0.017 0.076 0.026 0.044 0.016 0.086 0.033 0.13 0.050 0.020 0.008 0.041 0.016 0.061 0.024 0.062 0.026 0.124 0.053 0.186 0.082 0.005 0.002 0.010 0.005 0.014 0.007 0.056 0.026 0.112 0.054 0.167 0.083 0.021 0.011 0.040 0.022 0.060 0.033 0.039 0.021 0.078 0.043 0.116 0.065 0.023 0.014 0.046 0.028 0.069 0.042 0.035 0.021 0.069 0.042 0.103 0.065 0.023 0.015 0.046 0.031 0.070 0.047 0.032 0.022 0.065 0.044 0.096 0.067 0.023 0.016 0.046 0.033 0.069 0.050 0.031 0.024 0.062 0.047 0.092 0.071 0.023 0.017 0.044 0.035 0.066 0.053 0.031 0.025 0.061 0.050 0.090 0.076 0.021 0.018 0.042 0.036 0.062 0.054 0.030 0.028 0.060 0.056 0.090 0.084 0.018 0.017 0.037 0.035 0.056 0.053 0.032 0.032 0.065 0.065 0.096 0.098 0.014 0.015 0.029 0.029 0.043 0.044 0.045 0.048 0.089 0.098 0.132 0.148 0.006 0.007 0.012 0.015 0.017 0.021 0.036 0.044 0.073 0.088 0.107 0.134 0.014 0.018 0.028 0.037 0.042 0.055 0.026 0.035 0.052 0.070 0.077 0.105 0.015 0.021 0.029 0.044 0.044 0.066 0.023 0.033 0.044 0.066 0.066 0.1 0.015 0.024 0.029 0.047 0.044 0.071 0.020 0.033 0.040 0.067 0.059 0.101 0.014 0.025 0.028 0.049 0.041 0.074 0.019 0.034 0.037 0.069 0.055 0.103 0.013 0.025 0.025 0.050 0.037 0.075 0.017 0.036 0.034 0.072 0.050 0.108 0.012 0.025 0.023 0.049 0.033 0.075 0.017 0.038 0.032 0.077 0.047 0.116 0.009 0.024 0.018 0.047 0.028 0.071 0.017 0.045 0.032 0.090 0.047 0.135 0.006 0.019 0.013 0.037 0.019 0.055 0.020 0.064 0.039 0.129 0.057 0.195 0.002 0.010 0.005 0.021 0.007 0.031 0.014 0.056 0.028 0.111 0.040 0.168 0.005 0.023 0.009 0.046 0.013 0.069 0.007 0.035 0.014 0.070 0.021 0.106h12.453v-20.893c0-0.388 0.323-0.703 0.721-0.703h10.419c0.018 0 0.073 0 0.107-0.062s0.004-0.106-0.006-0.12l-2.255-3.3c-0.218-0.319-0.583-0.51-0.977-0.51h-18.817c-0.105 0-0.204 0.040-0.278 0.112l-1.192 1.163c-0.346 0.338-0.807 0.524-1.297 0.524h-12.409c-0.643 0-1.167 0.511-1.167 1.138v18.039z"></path>
<path d="M20.116 7.198h4.558c0.921 0 1.67 0.731 1.67 1.629v15.046c0 0.388-0.323 0.703-0.721 0.703h-6.456c-0.398 0-0.721-0.315-0.721-0.703v-15.046c-0.001-0.899 0.748-1.629 1.669-1.629zM19.887 23.17h5.015v-8.267h-5.015v8.267zM19.887 13.497h5.015v-4.669c0-0.123-0.103-0.223-0.229-0.223h-4.558c-0.126 0-0.229 0.1-0.229 0.223l0.001 4.669z"></path>
</symbol>
<symbol id="icon-gas" viewBox="0 0 32 32">
<path d="M18.667 1.731c-1.842 0.542-3.922 1.938-5.317 3.57-1.661 1.916-2.712 4.401-2.826 7.128l-0.001 0.024c-0.061 1.574 0.17 2.874 0.837 4.693 0.138 0.376 0.118 0.6-0.075 0.851-0.269 0.355-0.787 0.459-1.226 0.246-0.253-0.123-0.646-0.594-1.042-1.243-1.126-1.854-1.318-4.354-0.49-6.384 0.090-0.218 0.155-0.405 0.146-0.413-0.045-0.046-0.875 0.733-1.277 1.195-1.965 2.269-2.917 5.39-2.493 8.173 0.254 1.67 1.013 3.603 1.85 4.714 1.524 1.988 3.653 3.445 6.109 4.1l0.079 0.018c0.941 0.242 1.701 0.339 2.925 0.379 4.854 0.157 8.718-1.858 10.453-5.45 0.334-0.691 0.616-1.55 0.754-2.293 0.147-0.787 0.134-2.307-0.024-3.048-0.254-1.192-0.621-2.005-1.466-3.262-0.79-1.176-1.501-1.856-3.195-3.056-1.221-0.864-1.584-1.155-2.106-1.686-1.997-2.024-2.565-5.304-1.37-7.904 0.099-0.218 0.176-0.413 0.168-0.434-0.008-0.019-0.195 0.018-0.414 0.082zM17.058 14.040c0.278 0.504 0.67 1.059 1.029 1.451 0.238 0.261 1.598 1.458 2.051 1.805 0.222 0.171 0.77 0.893 0.955 1.262 0.302 0.6 0.418 1.152 0.384 1.842-0.019 0.678-0.199 1.309-0.503 1.863l0.011-0.021c-0.55 1.066-1.394 1.744-2.669 2.154-1.112 0.355-2.109 0.285-3.245-0.229-0.464-0.211-1.413-0.862-1.416-0.973 0-0.019 0.069-0.048 0.155-0.066 0.334-0.066 1.030-0.373 1.402-0.616 0.748-0.493 1.323-1.194 1.649-2.020l0.010-0.029c0.157-0.41 0.166-0.478 0.165-1.13-0.003-0.622-0.022-0.766-0.197-1.424-0.32-1.205-0.381-1.592-0.376-2.416 0.002-0.578 0.027-0.837 0.112-1.146 0.12-0.44 0.21-0.694 0.246-0.694 0.013 0 0.118 0.174 0.237 0.387z"></path>
</symbol>
<symbol id="icon-heart" viewBox="0 0 36 32">
<path d="M10.607 1.255c-1.802 0.060-3.741 0.723-5.252 1.795-0.646 0.458-1.639 1.428-2.087 2.041-1.308 1.783-1.933 3.667-1.933 5.818 0 2.148 0.617 4.007 1.93 5.818 0.484 0.669 13.807 13.997 14.182 14.189 0.399 0.204 1.073 0.204 1.472 0 0.375-0.192 13.697-13.52 14.182-14.189 1.321-1.821 1.93-3.668 1.93-5.849 0-2.618-0.995-4.986-2.88-6.848-1.709-1.708-4.069-2.764-6.676-2.764-0.028 0-0.056 0-0.085 0l0.004-0c-1.437 0.001-2.516 0.217-3.818 0.767-1.124 0.475-2.084 1.126-2.894 1.929l0.001-0.001-0.5 0.483-0.5-0.484c-0.809-0.801-1.769-1.45-2.834-1.902l-0.059-0.022c-1.12-0.498-2.427-0.789-3.801-0.789-0.134 0-0.267 0.003-0.4 0.008l0.019-0.001zM11.684 4.633c0.863 0.073 1.988 0.476 2.765 0.988 0.243 0.16 0.931 0.774 1.581 1.411 1.319 1.29 1.494 1.404 2.151 1.404s0.832-0.113 2.151-1.404c0.671-0.657 1.337-1.249 1.596-1.42 1.812-1.197 4.182-1.348 6.188-0.396 1.66 0.788 2.874 2.259 3.38 4.087 0.151 0.548 0.167 0.7 0.167 1.606s-0.016 1.057-0.167 1.606c-0.238 0.837-0.604 1.567-1.081 2.21l0.013-0.018c-0.208 0.273-2.873 2.985-6.304 6.415l-5.943 5.939-5.943-5.939c-3.431-3.43-6.096-6.141-6.304-6.415-0.464-0.625-0.83-1.355-1.056-2.144l-0.012-0.048c-0.151-0.548-0.167-0.7-0.167-1.606s0.016-1.057 0.167-1.606c0.592-2.182 2.264-3.87 4.392-4.475l0.045-0.011c0.522-0.15 1.434-0.268 1.818-0.233l0.563 0.048z"></path>
</symbol>
<symbol id="icon-heart-red" viewBox="0 0 32 32">
<path fill="#e44848" style="fill: var(--color1, #e44848); stroke: var(--color1, #e44848)" stroke="#e44848" stroke-linejoin="round" stroke-linecap="round" stroke-miterlimit="4" stroke-width="3.0667" d="M27.787 6.147c-0.681-0.681-1.49-1.222-2.379-1.591s-1.844-0.559-2.807-0.559-1.917 0.19-2.807 0.559c-0.89 0.369-1.699 0.909-2.38 1.591l-1.413 1.413-1.413-1.413c-1.376-1.376-3.241-2.148-5.187-2.148s-3.811 0.773-5.187 2.148c-1.376 1.376-2.148 3.241-2.148 5.187s0.773 3.811 2.148 5.187l11.787 11.787 11.787-11.787c0.681-0.681 1.222-1.49 1.591-2.38s0.559-1.844 0.559-2.807-0.19-1.917-0.559-2.807c-0.369-0.89-0.909-1.699-1.591-2.38z"></path>
</symbol>
<symbol id="icon-hob" viewBox="0 0 32 32">
<path d="M3.226 5.589c-0.667 0.234-1.199 0.711-1.5 1.322l-0.007 0.015-0.198 0.402v18.677l0.2 0.405c0.264 0.534 0.67 0.941 1.203 1.203l0.405 0.2h25.344l0.405-0.2c0.533-0.262 0.939-0.669 1.203-1.203l0.2-0.405v-18.677l-0.2-0.405c-0.26-0.527-0.677-0.943-1.188-1.196l-0.015-0.007-0.405-0.2-12.589-0.011c-11.837-0.011-12.606-0.006-12.858 0.080zM10.8 16.667v8.8l-3.395 0.013c-3.035 0.013-3.405 0.005-3.48-0.070-0.077-0.075-0.085-0.925-0.085-8.742 0-7.819 0.008-8.667 0.085-8.744 0.075-0.075 0.445-0.083 3.48-0.070l3.395 0.014v8.8zM28.077 7.923c0.075 0.077 0.083 0.942 0.083 8.744 0 7.808-0.008 8.667-0.083 8.742-0.077 0.075-0.81 0.083-7.48 0.070l-7.397-0.013-0.014-8.747c-0.006-4.811-0.002-8.776 0.013-8.813 0.019-0.053 1.55-0.067 7.41-0.067 6.642 0 7.394 0.008 7.469 0.083zM24.12 9.603c-0.148 0.081-0.273 0.185-0.376 0.307l-0.002 0.002c-0.173 0.221-7.861 11.117-8.082 11.453-0.119 0.177-0.19 0.395-0.19 0.63 0 0.328 0.139 0.624 0.36 0.832l0.001 0.001c0.499 0.485 1.165 0.498 1.637 0.035 0.202-0.198 7.938-11.115 8.245-11.637 0.098-0.165 0.126-0.291 0.126-0.558 0-0.012 0.001-0.027 0.001-0.042 0-0.395-0.201-0.743-0.507-0.946l-0.004-0.003c-0.309-0.213-0.869-0.248-1.21-0.074zM6.941 10.192c-0.261 0.078-0.68 0.52-0.754 0.792-0.040 0.149-0.054 0.754-0.043 1.814l0.016 1.592 0.162 0.23c0.088 0.126 0.264 0.302 0.39 0.39 0.206 0.146 0.272 0.162 0.621 0.162s0.416-0.016 0.621-0.162c0.126-0.088 0.302-0.264 0.392-0.39l0.162-0.23v-3.448l-0.162-0.23c-0.251-0.355-0.538-0.53-0.91-0.555-0.037-0.003-0.081-0.004-0.125-0.004-0.131 0-0.259 0.014-0.381 0.042l0.012-0.002zM6.728 16.83c-0.488 0.246-0.73 0.691-0.691 1.275 0.017 0.43 0.251 0.801 0.595 1.010l0.005 0.003c0.235 0.146 0.306 0.162 0.696 0.162 0.392 0 0.462-0.016 0.696-0.162 0.172-0.109 0.313-0.251 0.419-0.417l0.003-0.005c0.146-0.235 0.162-0.306 0.162-0.696s-0.016-0.461-0.162-0.696c-0.237-0.386-0.578-0.578-1.059-0.6-0.326-0.016-0.418 0.002-0.664 0.126zM6.728 20.83c-0.488 0.246-0.73 0.691-0.691 1.275 0.017 0.43 0.251 0.801 0.595 1.010l0.005 0.003c0.235 0.146 0.306 0.162 0.696 0.162 0.392 0 0.462-0.016 0.696-0.162 0.172-0.109 0.313-0.251 0.419-0.417l0.003-0.005c0.146-0.235 0.162-0.306 0.162-0.696s-0.016-0.461-0.162-0.696c-0.237-0.386-0.578-0.578-1.059-0.6-0.326-0.016-0.418 0.002-0.664 0.126z"></path>
</symbol>
<symbol id="icon-kitchen" viewBox="0 0 32 32">
<path d="M24.614 3.618c-0.253 0.155-1.828 1.809-2.475 2.598-2.252 2.749-3.553 5.442-4.084 8.451-0.207 1.174-0.345 3.016-0.347 4.642-0.001 0.644 0.012 0.748 0.119 0.96 0.074 0.151 0.189 0.273 0.329 0.355l0.004 0.002 0.214 0.119 5.786 0.002v2.234l-0.164-0.056c-0.364-0.127-0.826 0.083-1.008 0.458-0.11 0.226-0.111 0.289-0.097 2.394 0.015 2.098 0.018 2.167 0.127 2.313 0.061 0.083 0.19 0.205 0.287 0.271 0.167 0.113 0.231 0.12 1.094 0.12s0.928-0.007 1.095-0.12c0.097-0.066 0.226-0.187 0.287-0.271l0.113-0.15v-23.878l-0.113-0.15c-0.281-0.381-0.808-0.513-1.168-0.293zM6.511 4.915c-0.112 0.080-0.208 0.17-0.291 0.273l-0.002 0.003c-0.11 0.147-0.112 0.198-0.112 2.613 0 2.241 0.009 2.496 0.1 2.832 0.474 1.748 1.744 3.046 3.411 3.483l0.355 0.093v6.819c0 6.215 0.008 6.836 0.087 7.004 0.266 0.559 1.138 0.608 1.494 0.084 0.094-0.14 0.1-0.439 0.125-7.021l0.026-6.875 0.454-0.145c0.637-0.204 0.82-0.29 1.311-0.615 0.975-0.666 1.685-1.659 1.974-2.818l0.007-0.033c0.083-0.352 0.094-0.692 0.094-2.836 0-2.387-0.002-2.439-0.111-2.586-0.185-0.25-0.437-0.391-0.701-0.391-0.315 0-0.582 0.134-0.734 0.369l-0.125 0.191-0.022 2.347c-0.024 2.582-0.024 2.581-0.377 3.254-0.247 0.47-0.833 1.036-1.316 1.269-0.216 0.105-0.413 0.178-0.436 0.164s-0.043-1.588-0.043-3.497c0-3.435-0.001-3.471-0.113-3.67-0.228-0.404-0.802-0.555-1.171-0.305-0.117 0.085-0.216 0.185-0.299 0.298l-0.003 0.004-0.121 0.179v7.024l-0.278-0.107c-0.756-0.287-1.459-1.034-1.733-1.841-0.079-0.229-0.095-0.602-0.12-2.667-0.032-2.654-0.025-2.604-0.384-2.86-0.258-0.182-0.709-0.201-0.946-0.038zM24.16 12.773v6.214h-4.71l0.033-1.053c0.118-3.811 1.034-6.576 3.145-9.507 0.352-0.489 1.467-1.867 1.511-1.867 0.012 0 0.021 2.796 0.021 6.213z"></path>
</symbol>
<symbol id="icon-location" viewBox="0 0 24 24">
<path d="M22 10c0-2.761-1.12-5.263-2.929-7.071s-4.31-2.929-7.071-2.929-5.263 1.12-7.071 2.929-2.929 4.31-2.929 7.071c0 0.569 0.053 1.128 0.15 1.676 0.274 1.548 0.899 3.004 1.682 4.32 2.732 4.591 7.613 7.836 7.613 7.836 0.331 0.217 0.765 0.229 1.109 0 0 0 4.882-3.245 7.613-7.836 0.783-1.316 1.408-2.772 1.682-4.32 0.098-0.548 0.151-1.107 0.151-1.676zM20 10c0 0.444-0.041 0.887-0.119 1.328-0.221 1.25-0.737 2.478-1.432 3.646-1.912 3.214-5.036 5.747-6.369 6.74-1.398-0.916-4.588-3.477-6.53-6.74-0.695-1.168-1.211-2.396-1.432-3.646-0.077-0.441-0.118-0.884-0.118-1.328 0-2.209 0.894-4.208 2.343-5.657s3.448-2.343 5.657-2.343 4.208 0.894 5.657 2.343 2.343 3.448 2.343 5.657zM16 10c0-1.104-0.449-2.106-1.172-2.828s-1.724-1.172-2.828-1.172-2.106 0.449-2.828 1.172-1.172 1.724-1.172 2.828 0.449 2.106 1.172 2.828 1.724 1.172 2.828 1.172 2.106-0.449 2.828-1.172 1.172-1.724 1.172-2.828zM14 10c0 0.553-0.223 1.051-0.586 1.414s-0.861 0.586-1.414 0.586-1.051-0.223-1.414-0.586-0.586-0.861-0.586-1.414 0.223-1.051 0.586-1.414 0.861-0.586 1.414-0.586 1.051 0.223 1.414 0.586 0.586 0.861 0.586 1.414z"></path>
</symbol>
<symbol id="icon-microwave" viewBox="0 0 32 32">
<path d="M1.878 4.642c-0.762 0.11-1.506 0.776-1.757 1.571-0.098 0.314-0.098 19.261 0 19.574 0.259 0.821 0.989 1.458 1.805 1.574 0.49 0.072 27.706 0.067 28.154-0.003 0.741-0.129 1.349-0.603 1.661-1.247l0.006-0.014 0.173-0.365v-19.466l-0.173-0.365c-0.319-0.66-0.93-1.135-1.66-1.262l-0.014-0.002c-0.413-0.061-27.786-0.058-28.195 0.003zM29.733 16v9.147h-27.466l-0.014-9.094c-0.008-5.002-0.002-9.123 0.011-9.16 0.021-0.053 2.798-0.064 13.747-0.053l13.722 0.013v9.147zM6.357 9.23c-0.837 0.166-1.573 0.955-1.718 1.842-0.069 0.419-0.069 9.437 0 9.856 0.15 0.915 0.888 1.683 1.773 1.846 0.19 0.035 2.613 0.050 6.928 0.040l6.634-0.014 0.386-0.181c0.709-0.333 1.202-0.997 1.299-1.757 0.059-0.464 0.059-9.261 0-9.725-0.11-0.783-0.606-1.431-1.285-1.751l-0.014-0.006-0.386-0.181-6.693-0.008c-3.682-0.005-6.797 0.013-6.923 0.038zM24.987 10.325c-0.038 0.011-0.115 0.029-0.193 0.045l-0.036 0.006c-0.171 0.037-0.547 0.392-0.634 0.595-0.168 0.403-0.050 0.994 0.258 1.28 0.253 0.237 0.469 0.282 1.325 0.282 0.877 0 1.072-0.045 1.35-0.309 0.232-0.221 0.32-0.432 0.325-0.784 0.001-0.014 0.001-0.029 0.001-0.045 0-0.395-0.215-0.739-0.535-0.921l-0.005-0.003c-0.234-0.136-0.29-0.146-0.998-0.158-0.090-0.003-0.196-0.005-0.302-0.005-0.195 0-0.389 0.007-0.581 0.020l0.026-0.001zM19.467 16v4.587h-12.64v-9.174h12.64v4.587zM24.65 15.018c-0.426 0.214-0.57 0.462-0.57 0.982 0 0.526 0.146 0.773 0.581 0.986 0.286 0.141 0.31 0.144 1.146 0.126 0.85-0.019 0.851-0.019 1.083-0.181 0.302-0.204 0.498-0.545 0.498-0.931s-0.196-0.727-0.494-0.929l-0.004-0.003-0.232-0.162-0.862-0.018c-0.845-0.016-0.867-0.013-1.146 0.128z"></path>
</symbol>
<symbol id="icon-petrol" viewBox="0 0 32 32">
<path d="M7.573 4.035c-1.083 0.204-1.93 1.021-2.177 2.069l-0.004 0.019c-0.042 0.2-0.059 3.403-0.059 11.080v10.797h13.334v-9.973h1.966l0.021 3.586c0.018 3.149 0.030 3.622 0.107 3.88 0.338 1.118 1.141 1.971 2.198 2.333 0.368 0.126 0.51 0.147 1.040 0.147s0.672-0.021 1.040-0.147c0.858-0.296 1.543-0.905 1.932-1.686l0.009-0.020c0.374-0.787 0.352-0.32 0.352-7.8 0-7.518 0.022-7.035-0.352-7.803-0.264-0.542-0.658-0.974-3.163-3.477l-2.378-2.373-1.413 1.413 1.373 1.374c0.755 0.755 1.373 1.39 1.373 1.411 0 0.022-0.125 0.102-0.28 0.181-0.778 0.4-1.368 1.073-1.651 1.89l-0.007 0.024c-0.299 0.925-0.168 2.010 0.338 2.792 0.301 0.466 0.552 0.723 0.997 1.021 0.516 0.344 1.15 0.549 1.832 0.549 0.37 0 0.726-0.060 1.059-0.172l-0.023 0.007 0.299-0.101-0.029 9.984-0.117 0.218c-0.064 0.118-0.211 0.302-0.326 0.406-0.635 0.574-1.635 0.376-2.054-0.406-0.115-0.216-0.117-0.251-0.142-3.685-0.026-3.192-0.035-3.486-0.125-3.733-0.278-0.785-0.881-1.395-1.643-1.675l-0.019-0.006c-0.28-0.107-0.44-0.126-1.267-0.147l-0.946-0.022v-4.792c0-3.293-0.019-4.88-0.059-5.074-0.186-0.888-0.813-1.603-1.728-1.968l-0.32-0.128-4.427-0.008c-0.407-0.002-0.888-0.004-1.369-0.004-1.122 0-2.242 0.007-3.361 0.021l0.17-0.002zM16 10v3.333h-8v-6.666h8v3.333zM24.453 10.755c0.493 0.168 0.88 0.717 0.88 1.245-0.025 0.726-0.607 1.308-1.331 1.333l-0.002 0c-0.365-0.012-0.692-0.162-0.935-0.399l0 0c-0.242-0.238-0.392-0.569-0.392-0.935s0.15-0.697 0.392-0.935l0-0c0.237-0.241 0.567-0.391 0.931-0.391 0.164 0 0.321 0.030 0.465 0.085l-0.009-0.003zM16 20.667v4.666h-8v-9.333h8v4.667z"></path>
</symbol>
<symbol id="icon-radio" viewBox="0 0 32 32">
<path d="M13.947 4.365l-5.76 2.712-0.555 0.062c-1.904 0.214-3.109 0.709-4.101 1.68-1.027 1.008-1.504 2.197-1.76 4.402-0.080 0.677-0.091 1.394-0.091 5.446s0.011 4.768 0.091 5.445c0.254 2.182 0.704 3.325 1.715 4.357 1.008 1.027 2.197 1.504 4.402 1.76 0.698 0.082 1.549 0.091 8.112 0.091s7.414-0.010 8.112-0.091c2.205-0.256 3.394-0.733 4.402-1.76 1.011-1.032 1.461-2.174 1.715-4.357 0.080-0.677 0.091-1.392 0.091-5.445s-0.011-4.77-0.091-5.446c-0.256-2.205-0.733-3.394-1.76-4.402-1.018-0.997-2.16-1.453-4.277-1.709-0.576-0.069-1.586-0.088-5.758-0.109-2.838-0.013-5.040-0.043-5.013-0.069 0.026-0.026 1.65-0.802 3.61-1.725 1.96-0.922 3.611-1.722 3.672-1.776 0.192-0.196 0.31-0.464 0.31-0.76 0-0.002 0-0.004-0-0.006v0c0-0.598-0.419-1.013-1.024-1.011-0.261 0-0.718 0.205-6.042 2.71zM21.813 9.066c1.768 0.053 2.421 0.11 3.2 0.277 1.786 0.384 2.603 1.208 2.982 3.006 0.182 0.859 0.211 1.258 0.278 3.851 0.051 1.942 0.051 2.992 0 4.933-0.021 1.084-0.063 2.092-0.125 3.095l0.010-0.2c-0.12 1.011-0.397 1.963-0.725 2.493-0.571 0.926-1.65 1.437-3.461 1.64-0.912 0.102-3.675 0.155-7.973 0.155s-7.061-0.053-7.973-0.155c-2.579-0.29-3.626-1.138-4.050-3.28-0.154-0.773-0.186-1.253-0.253-3.747-0.024-0.735-0.038-1.599-0.038-2.466s0.014-1.731 0.042-2.592l-0.003 0.126c0.037-1.357 0.090-2.659 0.117-2.893 0.267-2.25 0.954-3.28 2.531-3.805 0.798-0.266 1.744-0.381 3.574-0.434 1.981-0.056 9.997-0.059 11.866-0.003zM8.443 11.067c-1.253 0.272-2.445 1.474-2.712 2.733-0.047 0.26-0.073 0.56-0.073 0.866s0.027 0.605 0.078 0.897l-0.005-0.031c0.27 1.275 1.467 2.469 2.746 2.739 0.525 0.11 14.533 0.112 15.046 0.002 1.283-0.277 2.475-1.466 2.746-2.741 0.047-0.26 0.073-0.559 0.073-0.865s-0.027-0.605-0.078-0.896l0.005 0.031c-0.27-1.275-1.466-2.467-2.746-2.739-0.509-0.107-14.584-0.104-15.080 0.005zM23.307 13.179c0.577 0.257 0.972 0.826 0.972 1.486s-0.395 1.229-0.962 1.482l-0.010 0.004c-0.282 0.131-0.334 0.138-1.28 0.139l-0.987 0.002-0.027-0.67c-0.024-0.603-0.040-0.691-0.16-0.867-0.158-0.234-0.579-0.462-0.853-0.462s-0.694 0.229-0.853 0.462c-0.12 0.176-0.136 0.264-0.16 0.867l-0.027 0.67h-9.973l-0.294-0.139c-1.054-0.501-1.307-1.827-0.501-2.626 0.228-0.234 0.526-0.399 0.861-0.459l0.010-0.001c0.134-0.024 3.328-0.038 7.098-0.035l6.853 0.008 0.294 0.139zM9.36 19.69c-0.355 0.067-0.954 0.362-1.269 0.626-0.763 0.635-1.104 1.362-1.104 2.352 0 0.774 0.195 1.354 0.635 1.882 1.272 1.531 3.486 1.536 4.747 0.008 0.256-0.309 0.506-0.816 0.584-1.186 0.082-0.382 0.075-1.152-0.013-1.478-0.414-1.549-1.973-2.509-3.581-2.203zM16.88 21.742c-0.334 0.161-0.561 0.497-0.561 0.885 0 0.014 0 0.028 0.001 0.041l-0-0.002c0 0.416 0.187 0.73 0.544 0.912 0.189 0.096 0.371 0.101 3.803 0.101 3.43 0 3.613-0.005 3.802-0.101 0.325-0.159 0.545-0.487 0.545-0.867 0-0.016-0-0.032-0.001-0.048l0 0.002c0.001-0.014 0.001-0.030 0.001-0.046 0-0.38-0.22-0.708-0.539-0.865l-0.006-0.003c-0.189-0.096-0.368-0.101-3.813-0.098-3.195 0.002-3.635 0.011-3.776 0.086zM10.33 21.763c0.359 0.151 0.609 0.498 0.616 0.903v0.001c0 0.282-0.096 0.496-0.314 0.702-0.598 0.565-1.578 0.128-1.578-0.702 0-0.283 0.096-0.496 0.314-0.704 0.166-0.159 0.392-0.257 0.641-0.257 0.115 0 0.225 0.021 0.327 0.059l-0.006-0.002z"></path>
</symbol>
<symbol id="icon-rating" viewBox="0 0 34 32">
<path fill="#f2f4f7" style="fill: var(--color3, #f2f4f7); stroke: var(--color3, #f2f4f7)" stroke="#f2f4f7" stroke-linejoin="miter" stroke-linecap="butt" stroke-miterlimit="4" stroke-width="2.56" d="M13.227 10.020l3.84-7.277 3.84 7.277c0.34 0.644 0.959 1.093 1.675 1.217l8.108 1.403-5.735 5.9c-0.507 0.522-0.744 1.249-0.64 1.97l1.171 8.144-7.384-3.631c-0.653-0.321-1.418-0.321-2.071 0l-7.384 3.631 1.171-8.144c0.104-0.72-0.133-1.448-0.64-1.97l-5.735-5.9 8.108-1.403c0.717-0.124 1.336-0.574 1.675-1.217z"></path>
</symbol>
<symbol id="icon-route" viewBox="0 0 32 32">
<path d="M9.333 2.857c-1.052 0-1.905 0.853-1.905 1.905s0.853 1.905 1.905 1.905c1.052 0 1.905-0.853 1.905-1.905s-0.853-1.905-1.905-1.905zM5.524 4.762c0-2.104 1.706-3.81 3.81-3.81s3.809 1.706 3.809 3.81-1.706 3.81-3.809 3.81c-2.104 0-3.81-1.706-3.81-3.81z"></path>
<path d="M22.667 16.191c-1.052 0-1.905 0.853-1.905 1.905s0.853 1.905 1.905 1.905c1.052 0 1.905-0.853 1.905-1.905s-0.853-1.905-1.905-1.905zM18.857 18.095c0-2.104 1.706-3.809 3.809-3.809s3.81 1.706 3.81 3.809c0 2.104-1.706 3.81-3.81 3.81s-3.809-1.706-3.809-3.81z"></path>
<path d="M14.095 4.762c0-0.526 0.426-0.952 0.952-0.952h6c2.95 0 4.014 3.86 1.419 5.306l-11.052 6.288c-0.828 0.46-0.558 1.739 0.49 1.739h5.048c0.526 0 0.952 0.426 0.952 0.952s-0.426 0.952-0.952 0.952h-5.048c-2.95 0-4.014-3.86-1.419-5.306l11.052-6.288c0.828-0.46 0.558-1.739-0.49-1.739h-6c-0.526 0-0.952-0.426-0.952-0.952z"></path>
</symbol>
<symbol id="icon-shower" viewBox="0 0 31 32">
<path d="M4.784 4.78c-0.331 0.149-0.558 0.476-0.558 0.857 0 0.010 0 0.019 0 0.029l-0-0.001c0 0.144 0.029 0.32 0.065 0.39s0.689 0.754 1.455 1.522l1.39 1.396-0.232 0.333c-0.508 0.729-0.948 1.762-1.146 2.693-0.134 0.627-0.134 2.324 0 2.945 0.187 0.87 0.622 1.909 1.084 2.592l0.23 0.34-0.691 0.721c-0.38 0.397-0.73 0.789-0.776 0.875-0.109 0.196-0.11 0.628-0.003 0.835 0.275 0.531 0.942 0.696 1.434 0.354 0.255-0.177 13.146-13.142 13.237-13.313 0.037-0.070 0.067-0.247 0.067-0.394 0-0.502-0.348-0.894-0.838-0.942-0.438-0.042-0.582 0.045-1.378 0.824l-0.733 0.718-0.492-0.309c-1.101-0.712-2.447-1.136-3.891-1.136-0.126 0-0.251 0.003-0.376 0.010l0.017-0.001c-1.406 0.063-2.695 0.51-3.781 1.237l0.027-0.017-0.388 0.258-1.372-1.364c-0.884-0.88-1.44-1.393-1.563-1.445-0.232-0.097-0.579-0.099-0.788-0.006zM13.576 8.074c0.697 0.087 1.331 0.289 1.906 0.587l-0.031-0.015c0.292 0.145 0.53 0.278 0.53 0.296s-1.694 1.726-3.765 3.796l-3.765 3.765-0.263-0.507c-0.48-0.928-0.612-1.489-0.606-2.575 0.006-0.919 0.072-1.26 0.404-2.074 0.535-1.314 1.75-2.478 3.094-2.964 0.896-0.325 1.627-0.415 2.496-0.308zM20.325 12.522c-0.529 0.21-0.761 0.946-0.447 1.421 0.396 0.599 1.287 0.581 1.632-0.033 0.286-0.509 0.052-1.191-0.477-1.391-0.179-0.068-0.534-0.066-0.708 0.003zM25.496 13.814c-0.529 0.211-0.761 0.947-0.447 1.422 0.397 0.598 1.287 0.581 1.632-0.033 0.286-0.509 0.052-1.191-0.477-1.392-0.178-0.067-0.533-0.066-0.708 0.003zM16.446 16.401c-0.17 0.068-0.402 0.292-0.504 0.485-0.122 0.234-0.105 0.683 0.037 0.919 0.365 0.61 1.305 0.601 1.652-0.017 0.286-0.509 0.052-1.191-0.477-1.391-0.179-0.068-0.534-0.066-0.708 0.003zM21.617 17.693c-0.17 0.068-0.402 0.292-0.504 0.486-0.122 0.234-0.104 0.683 0.038 0.919 0.262 0.438 0.875 0.586 1.328 0.319 0.66-0.387 0.564-1.456-0.154-1.727-0.178-0.067-0.533-0.066-0.708 0.003zM12.567 20.279c-0.17 0.068-0.402 0.292-0.504 0.485-0.134 0.256-0.108 0.706 0.056 0.953 0.378 0.571 1.292 0.553 1.637-0.033 0.141-0.238 0.16-0.689 0.039-0.92-0.105-0.202-0.337-0.418-0.52-0.488-0.179-0.068-0.534-0.066-0.708 0.003zM17.739 21.572c-0.17 0.068-0.402 0.292-0.504 0.486-0.134 0.255-0.108 0.706 0.056 0.953 0.375 0.565 1.282 0.553 1.639-0.024 0.14-0.226 0.159-0.697 0.038-0.929-0.106-0.202-0.337-0.419-0.521-0.489-0.178-0.067-0.533-0.066-0.708 0.003zM13.86 25.449c-0.355 0.148-0.585 0.517-0.586 0.938 0 0.54 0.391 0.92 0.948 0.92 0.559 0 0.939-0.37 0.944-0.922 0.003-0.36-0.097-0.565-0.39-0.802-0.157-0.127-0.251-0.16-0.491-0.173-0.164-0.009-0.355 0.009-0.427 0.039z"></path>
</symbol>
<symbol id="icon-star" viewBox="0 0 32 32">
<path fill="#ffc531" style="fill: var(--color4, #ffc531); stroke: var(--color4, #ffc531)" stroke="#ffc531" stroke-linejoin="miter" stroke-linecap="butt" stroke-miterlimit="4" stroke-width="2.4" d="M12.4 9.394l3.6-6.822 3.6 6.822c0.318 0.603 0.899 1.025 1.571 1.141l7.601 1.315-5.376 5.532c-0.475 0.489-0.697 1.171-0.6 1.846l1.098 7.635-6.922-3.404c-0.612-0.301-1.329-0.301-1.941 0l-6.922 3.404 1.098-7.635c0.097-0.675-0.125-1.357-0.6-1.846l-5.376-5.532 7.601-1.315c0.672-0.116 1.252-0.538 1.571-1.141zM29.035 11.579v0zM7.767 27.031c0 0 0 0 0 0h-0z"></path>
</symbol>
<symbol id="icon-toilet" viewBox="0 0 32 32">
<path d="M7.333 4.078c-1.216 0.267-2.277 1.197-3.134 2.749-0.629 1.136-1.147 2.931-1.408 4.886-0.115 0.864-0.133 3.491-0.029 4.339 0.19 1.554 0.546 3.035 1.005 4.176 0.741 1.845 1.901 3.154 3.189 3.597 0.382 0.131 0.506 0.147 1.072 0.144 0.579-0.003 0.68-0.019 1.072-0.166 0.506-0.19 0.939-0.458 1.306-0.8l0.262-0.245 0.002 2.074c0.002 1.594 0.019 2.122 0.074 2.275 0.176 0.483 0.612 0.831 1.134 0.876l0.005 0c0.288 0.027 0.442-0.016 2.214-0.603l1.904-0.632 1.885 0.626c1.037 0.344 1.962 0.626 2.056 0.626 0.093 0 1.045-0.146 2.114-0.325l1.946-0.325 1.982 0.331c1.414 0.235 2.051 0.322 2.222 0.298 0.514-0.087 0.924-0.457 1.068-0.941l0.002-0.009c0.048-0.174 0.059-1.974 0.043-7.482-0.018-6.402-0.030-7.326-0.107-7.867-0.219-1.522-0.518-2.741-0.928-3.787-0.456-1.163-0.971-1.979-1.718-2.725-0.437-0.434-0.59-0.549-1.019-0.762-0.877-0.432-0.234-0.405-9.573-0.402-6.674 0.003-8.382 0.018-8.64 0.074zM8.33 6.779c0.798 0.406 1.618 2.029 2.016 3.989 0.72 3.55 0.136 7.862-1.33 9.821-0.546 0.728-1.013 0.893-1.515 0.531-0.914-0.658-1.714-2.63-2.040-5.040-0.133-0.97-0.133-3.19 0-4.16 0.349-2.57 1.229-4.629 2.197-5.139 0.267-0.141 0.402-0.141 0.672-0.002zM24.33 6.779c0.792 0.403 1.618 2.030 2.014 3.968 0.293 1.427 0.286 1.283 0.309 8.040 0.019 6.022 0.016 6.28-0.077 6.278-0.053 0-0.589-0.083-1.189-0.186-0.361-0.071-0.826-0.137-1.297-0.182l-0.063-0.005c-0.147 0-1.085 0.134-2.085 0.299l-1.816 0.302-1.947-0.648c-1.277-0.424-2.026-0.646-2.176-0.646-0.178 0-1.875 0.514-2.6 0.786-0.050 0.018-0.069-1.395-0.085-6.234-0.018-5.528-0.030-6.333-0.11-6.893-0.264-1.842-0.658-3.27-1.23-4.459 0.131 0.314 0.053 0.152-0.026-0.010l-0.21-0.482c-0.010-0.022 2.77-0.040 6.176-0.040 6.182 0 6.194 0 6.411 0.112zM7.515 11.533c-0.28 0.216-0.538 0.67-0.698 1.238-0.176 0.622-0.176 1.838 0 2.453 0.55 1.918 1.814 1.918 2.365 0 0.176-0.614 0.176-1.83 0-2.453-0.256-0.902-0.682-1.411-1.182-1.411-0.21 0-0.301 0.032-0.485 0.173z"></path>
</symbol>
<symbol id="icon-TV" viewBox="0 0 27  32">
<path d="M6.851 0.702c-0.209 0.111-0.376 0.28-0.48 0.485l-0.003 0.006c-0.037 0.104-0.058 0.224-0.058 0.349 0 0.133 0.024 0.261 0.069 0.379l-0.002-0.007c0.047 0.115 0.801 0.899 2.426 2.526l2.358 2.36h-2.975c-3.070 0-3.695 0.026-4.301 0.181-1.766 0.451-3.188 1.889-3.629 3.673-0.146 0.588-0.164 1.281-0.164 6.367 0 5.192 0.017 5.786 0.179 6.42 0.384 1.444 1.353 2.611 2.632 3.252l0.029 0.013c0.485 0.25 1.050 0.423 1.648 0.485l0.021 0.002c0.647 0.070 16.996 0.070 17.643 0 2.065-0.223 3.814-1.737 4.326-3.742 0.165-0.645 0.182-1.222 0.181-6.407 0-5.053-0.020-5.81-0.162-6.386-0.443-1.788-1.862-3.226-3.63-3.677-0.606-0.155-1.231-0.181-4.301-0.181h-2.974l2.376-2.382c2.572-2.58 2.504-2.498 2.466-2.958-0.047-0.58-0.654-0.969-1.227-0.788-0.138 0.044-0.727 0.608-3.023 2.901l-2.852 2.846-2.829-2.826c-1.96-1.959-2.88-2.848-2.996-2.895-0.216-0.090-0.554-0.087-0.743 0.006zM22.728 8.838c0.787 0.282 1.445 0.866 1.81 1.602 0.354 0.717 0.337 0.355 0.322 6.727l-0.011 5.668-0.127 0.357c-0.381 1.081-1.286 1.888-2.401 2.126l-0.021 0.004c-0.468 0.094-17.291 0.094-17.759 0-0.692-0.141-1.286-0.491-1.729-0.98l-0.002-0.003c-0.3-0.318-0.536-0.701-0.685-1.125l-0.007-0.022-0.127-0.357-0.012-5.636c-0.009-3.985 0.001-5.722 0.036-5.927 0.139-0.811 0.666-1.603 1.384-2.078 0.345-0.229 0.54-0.316 0.963-0.428 0.301-0.081 0.645-0.084 9.148-0.074l8.834 0.008 0.385 0.138zM8.866 29.618c-0.375 0.186-0.587 0.693-0.457 1.088 0.073 0.223 0.295 0.468 0.515 0.568 0.169 0.076 0.416 0.082 4.495 0.082s4.326-0.005 4.495-0.082c0.326-0.147 0.548-0.469 0.548-0.843 0-0.323-0.166-0.607-0.418-0.772l-0.003-0.002-0.165-0.111-8.819-0.024-0.192 0.096z"></path>
</symbol>
<symbol id="icon-van" viewBox="0 0 46 32">
<path d="M2.608 1.8h12.409c0.105 0 0.203-0.040 0.278-0.112l1.192-1.163c0.346-0.338 0.807-0.524 1.297-0.524h18.817c0.876 0 1.69 0.425 2.176 1.136l2.255 3.3c0.32 0.468 0.349 1.067 0.077 1.564s-0.8 0.805-1.377 0.805h-9.698v0.956h4.967c1.317 0 2.501 0.763 3.018 1.945l2.908 6.65 2.548 0.994c1.36 0.531 2.24 1.797 2.24 3.227v6.158c0 0.918-0.766 1.666-1.708 1.666h-2.964c-0.345 2.039-2.164 3.599-4.35 3.599s-4.005-1.561-4.35-3.599h-16.203c-0.345 2.039-2.164 3.599-4.35 3.599s-4.005-1.561-4.35-3.599h-5.921c-0.837 0-1.518-0.664-1.518-1.481v-22.576c0-1.403 1.17-2.544 2.608-2.544zM36.692 30.594c1.637 0 2.969-1.299 2.969-2.896s-1.332-2.896-2.969-2.896c-1.637 0-2.969 1.299-2.969 2.896s1.332 2.896 2.969 2.896zM30.034 26.995h2.307c0.006-0.035 0.013-0.070 0.020-0.105 0.005-0.024 0.009-0.047 0.014-0.071 0.012-0.055 0.025-0.11 0.039-0.164 0.003-0.011 0.005-0.023 0.009-0.034 0.017-0.066 0.036-0.13 0.057-0.195 0.006-0.019 0.013-0.037 0.019-0.056 0.015-0.045 0.031-0.090 0.047-0.134 0.009-0.024 0.018-0.047 0.028-0.071 0.015-0.039 0.030-0.078 0.047-0.116 0.010-0.025 0.022-0.050 0.033-0.075 0.016-0.037 0.032-0.072 0.050-0.108 0.013-0.025 0.025-0.050 0.038-0.075 0.017-0.034 0.036-0.069 0.054-0.103 0.013-0.025 0.027-0.049 0.041-0.074 0.019-0.034 0.039-0.067 0.059-0.101 0.014-0.024 0.029-0.047 0.043-0.071 0.022-0.034 0.044-0.067 0.066-0.101 0.015-0.022 0.029-0.044 0.044-0.065 0.025-0.035 0.051-0.070 0.077-0.105 0.013-0.018 0.026-0.037 0.040-0.055 0.036-0.046 0.072-0.090 0.109-0.135 0.005-0.007 0.010-0.014 0.016-0.020 0.043-0.051 0.087-0.1 0.132-0.148 0.014-0.015 0.028-0.029 0.043-0.044 0.032-0.033 0.063-0.066 0.096-0.099 0.018-0.018 0.038-0.035 0.056-0.053 0.029-0.028 0.059-0.056 0.090-0.084 0.020-0.018 0.041-0.036 0.062-0.054 0.030-0.026 0.060-0.051 0.090-0.077l0.066-0.052c0.031-0.024 0.062-0.048 0.093-0.071 0.022-0.017 0.045-0.034 0.069-0.050 0.032-0.023 0.064-0.045 0.097-0.068 0.023-0.015 0.046-0.031 0.069-0.046 0.034-0.023 0.069-0.044 0.104-0.065 0.022-0.014 0.045-0.028 0.068-0.041 0.038-0.023 0.077-0.044 0.116-0.065 0.020-0.011 0.040-0.023 0.059-0.033 0.056-0.029 0.112-0.057 0.168-0.084 0.005-0.002 0.009-0.004 0.013-0.006 0.061-0.029 0.123-0.056 0.186-0.082 0.020-0.008 0.041-0.016 0.061-0.024 0.043-0.017 0.086-0.034 0.13-0.050 0.025-0.009 0.050-0.017 0.075-0.026 0.040-0.014 0.080-0.027 0.12-0.039 0.027-0.008 0.054-0.016 0.082-0.024 0.039-0.011 0.078-0.023 0.118-0.033 0.028-0.007 0.056-0.015 0.085-0.021 0.039-0.009 0.078-0.018 0.118-0.026 0.029-0.006 0.058-0.012 0.087-0.018 0.040-0.007 0.081-0.015 0.122-0.021 0.029-0.005 0.057-0.010 0.086-0.014 0.042-0.006 0.085-0.011 0.128-0.016 0.027-0.003 0.055-0.007 0.082-0.009 0.047-0.004 0.095-0.008 0.143-0.011 0.024-0.002 0.047-0.004 0.070-0.005 0.072-0.004 0.144-0.006 0.216-0.006s0.144 0.002 0.216 0.006c0.024 0.001 0.047 0.003 0.070 0.005 0.048 0.003 0.096 0.006 0.143 0.011 0.028 0.002 0.055 0.006 0.082 0.009 0.043 0.005 0.086 0.010 0.128 0.016 0.029 0.004 0.058 0.008 0.087 0.014 0.041 0.006 0.081 0.014 0.122 0.021 0.029 0.006 0.058 0.012 0.087 0.018 0.040 0.008 0.079 0.017 0.118 0.026 0.029 0.007 0.057 0.014 0.085 0.021 0.039 0.010 0.078 0.021 0.118 0.033 0.028 0.008 0.055 0.016 0.082 0.024 0.040 0.012 0.080 0.026 0.12 0.039 0.025 0.009 0.050 0.017 0.075 0.026 0.044 0.016 0.087 0.033 0.13 0.050 0.020 0.008 0.041 0.016 0.061 0.024 0.062 0.026 0.125 0.053 0.186 0.082 0.005 0.002 0.009 0.005 0.013 0.006 0.057 0.027 0.112 0.055 0.168 0.084 0.020 0.011 0.039 0.022 0.059 0.033 0.039 0.021 0.078 0.043 0.116 0.065 0.023 0.014 0.045 0.028 0.068 0.041 0.035 0.021 0.070 0.043 0.104 0.065 0.023 0.015 0.046 0.031 0.069 0.046 0.033 0.023 0.065 0.044 0.097 0.068 0.023 0.016 0.046 0.033 0.069 0.050 0.031 0.024 0.062 0.047 0.093 0.071l0.066 0.052c0.031 0.025 0.061 0.051 0.090 0.077 0.021 0.018 0.041 0.036 0.062 0.054 0.031 0.028 0.060 0.056 0.090 0.084 0.018 0.017 0.037 0.035 0.056 0.053 0.033 0.033 0.065 0.066 0.096 0.099 0.014 0.015 0.029 0.029 0.043 0.044 0.045 0.048 0.089 0.098 0.132 0.148 0.006 0.007 0.011 0.014 0.016 0.020 0.037 0.044 0.073 0.089 0.109 0.135 0.014 0.018 0.027 0.037 0.040 0.055 0.026 0.035 0.052 0.070 0.077 0.105 0.015 0.021 0.029 0.043 0.044 0.065 0.022 0.034 0.044 0.067 0.066 0.101 0.014 0.024 0.029 0.047 0.043 0.071 0.020 0.033 0.040 0.067 0.059 0.101 0.014 0.025 0.028 0.049 0.041 0.074 0.018 0.034 0.037 0.069 0.054 0.103 0.013 0.025 0.025 0.050 0.038 0.075 0.017 0.036 0.033 0.071 0.050 0.108 0.011 0.025 0.023 0.049 0.033 0.075 0.017 0.038 0.032 0.077 0.047 0.116 0.010 0.024 0.019 0.047 0.028 0.071 0.016 0.044 0.032 0.089 0.047 0.134 0.006 0.019 0.013 0.038 0.019 0.056 0.020 0.064 0.039 0.129 0.056 0.195 0.003 0.011 0.006 0.023 0.009 0.034 0.014 0.055 0.027 0.109 0.039 0.164 0.005 0.024 0.009 0.047 0.014 0.071 0.007 0.035 0.014 0.069 0.020 0.105h2.963c0.147 0 0.266-0.116 0.266-0.26v-2.946h-1.124v-1.406h1.124v-1.806c0-0.851-0.523-1.606-1.333-1.922l-2.697-1.052h-10.209v9.392zM30.034 16.197h9.257l-2.598-5.939c-0.29-0.662-0.954-1.090-1.692-1.090h-4.967v7.030zM11.789 30.594c1.637 0 2.969-1.299 2.969-2.896s-1.332-2.896-2.969-2.896c-0.051 0-0.102 0.001-0.153 0.004-1.364 0.067-2.488 1.038-2.756 2.309-0.010 0.047-0.019 0.095-0.027 0.143-0.015 0.096-0.025 0.193-0.030 0.291-0.003 0.049-0.004 0.099-0.004 0.149 0 1.597 1.332 2.896 2.969 2.896zM1.441 22.383h1.124v1.406h-1.124v3.131c0 0.041 0.035 0.075 0.077 0.075h5.92c0.006-0.035 0.013-0.069 0.020-0.104 0.005-0.024 0.009-0.048 0.014-0.072 0.012-0.054 0.024-0.107 0.038-0.16 0.003-0.012 0.006-0.025 0.009-0.038 0.017-0.065 0.036-0.129 0.056-0.193 0.006-0.020 0.013-0.039 0.020-0.058 0.015-0.044 0.030-0.089 0.046-0.132 0.009-0.025 0.019-0.048 0.028-0.072 0.015-0.038 0.031-0.077 0.046-0.114 0.011-0.026 0.022-0.051 0.034-0.076 0.016-0.036 0.032-0.071 0.050-0.106 0.012-0.026 0.025-0.051 0.038-0.076 0.017-0.034 0.035-0.068 0.054-0.102 0.014-0.025 0.028-0.049 0.042-0.074 0.020-0.034 0.039-0.067 0.059-0.1 0.014-0.024 0.029-0.048 0.044-0.071 0.021-0.034 0.043-0.067 0.066-0.1 0.014-0.023 0.029-0.045 0.044-0.066 0.025-0.035 0.051-0.070 0.076-0.104 0.014-0.019 0.028-0.038 0.042-0.057 0.035-0.044 0.070-0.088 0.106-0.132 0.006-0.008 0.012-0.016 0.018-0.023 0.043-0.051 0.087-0.1 0.132-0.148 0.014-0.015 0.029-0.030 0.043-0.045 0.032-0.033 0.063-0.066 0.096-0.098 0.018-0.018 0.037-0.035 0.056-0.053 0.029-0.028 0.059-0.056 0.089-0.083 0.020-0.018 0.041-0.036 0.062-0.055 0.029-0.025 0.059-0.051 0.090-0.075 0.022-0.018 0.044-0.036 0.066-0.053 0.030-0.024 0.061-0.047 0.092-0.071 0.022-0.017 0.046-0.034 0.069-0.050 0.032-0.023 0.064-0.045 0.096-0.067 0.024-0.016 0.047-0.031 0.070-0.047 0.034-0.023 0.069-0.044 0.103-0.065 0.023-0.014 0.046-0.028 0.069-0.042 0.038-0.023 0.077-0.044 0.116-0.065 0.020-0.011 0.040-0.023 0.061-0.033 0.055-0.029 0.11-0.057 0.167-0.083 0.005-0.002 0.009-0.005 0.014-0.007 0.061-0.029 0.123-0.056 0.186-0.082 0.020-0.008 0.041-0.016 0.061-0.024 0.043-0.017 0.086-0.034 0.13-0.050 0.025-0.009 0.050-0.017 0.076-0.026 0.039-0.014 0.079-0.027 0.119-0.039 0.027-0.008 0.055-0.016 0.082-0.024 0.039-0.011 0.078-0.023 0.118-0.033 0.028-0.007 0.056-0.015 0.085-0.021 0.039-0.009 0.078-0.018 0.118-0.026 0.029-0.006 0.058-0.012 0.087-0.018 0.040-0.007 0.081-0.015 0.122-0.021 0.029-0.005 0.057-0.010 0.086-0.014 0.042-0.006 0.085-0.011 0.128-0.016 0.027-0.003 0.055-0.007 0.082-0.009 0.047-0.004 0.095-0.008 0.143-0.011 0.024-0.002 0.047-0.004 0.070-0.005 0.072-0.004 0.144-0.006 0.216-0.006s0.144 0.002 0.216 0.006c0.024 0.001 0.047 0.003 0.070 0.005 0.048 0.003 0.096 0.006 0.143 0.011 0.028 0.002 0.055 0.006 0.082 0.009 0.043 0.005 0.086 0.010 0.128 0.016 0.029 0.004 0.058 0.008 0.086 0.014 0.041 0.006 0.081 0.014 0.122 0.021 0.029 0.006 0.058 0.012 0.087 0.018 0.040 0.008 0.079 0.017 0.118 0.026 0.029 0.007 0.057 0.014 0.085 0.021 0.039 0.010 0.078 0.021 0.118 0.033 0.027 0.008 0.055 0.016 0.082 0.024 0.040 0.012 0.080 0.026 0.119 0.039 0.025 0.009 0.051 0.017 0.076 0.026 0.044 0.016 0.086 0.033 0.13 0.050 0.020 0.008 0.041 0.016 0.061 0.024 0.062 0.026 0.124 0.053 0.186 0.082 0.005 0.002 0.010 0.005 0.014 0.007 0.056 0.026 0.112 0.054 0.167 0.083 0.021 0.011 0.040 0.022 0.060 0.033 0.039 0.021 0.078 0.043 0.116 0.065 0.023 0.014 0.046 0.028 0.069 0.042 0.035 0.021 0.069 0.042 0.103 0.065 0.023 0.015 0.046 0.031 0.070 0.047 0.032 0.022 0.065 0.044 0.096 0.067 0.023 0.016 0.046 0.033 0.069 0.050 0.031 0.024 0.062 0.047 0.092 0.071 0.023 0.017 0.044 0.035 0.066 0.053 0.031 0.025 0.061 0.050 0.090 0.076 0.021 0.018 0.042 0.036 0.062 0.054 0.030 0.028 0.060 0.056 0.090 0.084 0.018 0.017 0.037 0.035 0.056 0.053 0.032 0.032 0.065 0.065 0.096 0.098 0.014 0.015 0.029 0.029 0.043 0.044 0.045 0.048 0.089 0.098 0.132 0.148 0.006 0.007 0.012 0.015 0.017 0.021 0.036 0.044 0.073 0.088 0.107 0.134 0.014 0.018 0.028 0.037 0.042 0.055 0.026 0.035 0.052 0.070 0.077 0.105 0.015 0.021 0.029 0.044 0.044 0.066 0.023 0.033 0.044 0.066 0.066 0.1 0.015 0.024 0.029 0.047 0.044 0.071 0.020 0.033 0.040 0.067 0.059 0.101 0.014 0.025 0.028 0.049 0.041 0.074 0.019 0.034 0.037 0.069 0.055 0.103 0.013 0.025 0.025 0.050 0.037 0.075 0.017 0.036 0.034 0.072 0.050 0.108 0.012 0.025 0.023 0.049 0.033 0.075 0.017 0.038 0.032 0.077 0.047 0.116 0.009 0.024 0.018 0.047 0.028 0.071 0.017 0.045 0.032 0.090 0.047 0.135 0.006 0.019 0.013 0.037 0.019 0.055 0.020 0.064 0.039 0.129 0.057 0.195 0.002 0.010 0.005 0.021 0.007 0.031 0.014 0.056 0.028 0.111 0.040 0.168 0.005 0.023 0.009 0.046 0.013 0.069 0.007 0.035 0.014 0.070 0.021 0.106h12.453v-20.893c0-0.388 0.323-0.703 0.721-0.703h10.419c0.018 0 0.073 0 0.107-0.062s0.004-0.106-0.006-0.12l-2.255-3.3c-0.218-0.319-0.583-0.51-0.977-0.51h-18.817c-0.105 0-0.204 0.040-0.278 0.112l-1.192 1.163c-0.346 0.338-0.807 0.524-1.297 0.524h-12.409c-0.643 0-1.167 0.511-1.167 1.138v18.039z"></path>
<path d="M5.536 7.198h8.814c1.019 0 1.848 0.809 1.848 1.802v4.1c0 0.994-0.829 1.802-1.848 1.802h-8.815c-1.019 0-1.848-0.809-1.848-1.802v-4.1c0.001-0.994 0.83-1.802 1.848-1.802zM5.129 13.1c0 0.218 0.182 0.396 0.406 0.396h8.814c0.224 0 0.406-0.178 0.406-0.396v-4.1c0-0.218-0.182-0.396-0.406-0.396h-8.815c-0.224 0-0.406 0.178-0.406 0.396l0.001 4.1z"></path>
</symbol>
<symbol id="icon-water" viewBox="0 0 32 32">
<path d="M15.592 2.346c-0.347 0.091-0.649 0.251-0.902 0.467l0.003-0.003c-0.088 0.083-0.486 0.546-0.885 1.030-2.493 3.027-4.523 6.075-5.933 8.907-1.043 2.096-1.59 3.658-1.936 5.52-0.078 0.429-0.098 0.792-0.096 1.866 0.002 1.469 0.072 2.034 0.394 3.182 0.986 3.509 3.587 5.896 7.222 6.63 0.93 0.187 1.483 0.24 2.541 0.24 0.514 0 1.149-0.024 1.413-0.054 4.965-0.565 8.182-3.81 8.726-8.8 0.078-0.723 0.034-2.432-0.082-3.064-0.33-1.819-0.896-3.435-1.933-5.52-1.413-2.84-3.442-5.883-5.939-8.914-0.319-0.398-0.627-0.75-0.949-1.089l0.007 0.007c-0.405-0.341-1.125-0.517-1.651-0.406zM16.419 5.45c3.179 3.902 5.666 7.997 6.712 11.058 0.413 1.205 0.595 2.133 0.64 3.234 0.078 1.973-0.408 3.819-1.355 5.152-0.594 0.792-1.327 1.444-2.169 1.93l-0.035 0.018c-1.739 0.96-4.522 1.229-6.746 0.651-1.867-0.486-3.349-1.594-4.245-3.174-0.83-1.464-1.181-3.531-0.928-5.461 0.344-2.624 1.99-6.096 4.797-10.11 0.902-1.293 2.818-3.781 2.909-3.779 0.014 0 0.203 0.218 0.419 0.482zM20.962 19.451c-0.437 0.229-0.59 0.478-0.654 1.064-0.086 0.779-0.146 1.016-0.373 1.469-0.158 0.315-0.357 0.585-0.594 0.815l-0.001 0.001c-0.626 0.632-1.214 0.901-2.16 0.99-0.674 0.064-0.944 0.195-1.181 0.568-0.124 0.18-0.198 0.402-0.198 0.642 0 0.295 0.112 0.564 0.297 0.766l-0.001-0.001c0.267 0.31 0.533 0.419 1.030 0.421 2.922 0.008 5.506-2.547 5.555-5.493 0.008-0.424-0.010-0.541-0.104-0.72-0.189-0.374-0.562-0.631-0.997-0.651l-0.003-0c-0.043-0.008-0.093-0.012-0.143-0.012-0.176 0-0.34 0.053-0.476 0.144l0.003-0.002z"></path>
</symbol>
<symbol id="icon-bathroom" viewBox="0 0 32 32">
<path d="M26 17v3c0 1.781-0.781 3.359-2 4.469v3.031c0 0.281-0.219 0.5-0.5 0.5h-1c-0.281 0-0.5-0.219-0.5-0.5v-1.844c-0.625 0.219-1.297 0.344-2 0.344h-12c-0.703 0-1.375-0.125-2-0.344v1.719c0 0.344-0.219 0.625-0.5 0.625h-1c-0.281 0-0.5-0.281-0.5-0.625v-2.906c-1.219-1.109-2-2.688-2-4.469v-3h24zM11 10.5c0 0.281-0.219 0.5-0.5 0.5s-0.5-0.219-0.5-0.5 0.219-0.5 0.5-0.5 0.5 0.219 0.5 0.5zM12 9.5c0 0.281-0.219 0.5-0.5 0.5s-0.5-0.219-0.5-0.5 0.219-0.5 0.5-0.5 0.5 0.219 0.5 0.5zM11 8.5c0 0.281-0.219 0.5-0.5 0.5s-0.5-0.219-0.5-0.5 0.219-0.5 0.5-0.5 0.5 0.219 0.5 0.5zM13 8.5c0 0.281-0.219 0.5-0.5 0.5s-0.5-0.219-0.5-0.5 0.219-0.5 0.5-0.5 0.5 0.219 0.5 0.5zM12 7.5c0 0.281-0.219 0.5-0.5 0.5s-0.5-0.219-0.5-0.5 0.219-0.5 0.5-0.5 0.5 0.219 0.5 0.5zM11 6.5c0 0.281-0.219 0.5-0.5 0.5s-0.5-0.219-0.5-0.5 0.219-0.5 0.5-0.5 0.5 0.219 0.5 0.5zM28 14.5v1c0 0.281-0.219 0.5-0.5 0.5h-27c-0.281 0-0.5-0.219-0.5-0.5v-1c0-0.281 0.219-0.5 0.5-0.5h1.5v-10c0-2.203 1.797-4 4-4 1.125 0 2.141 0.469 2.875 1.219 0.969-0.391 2.125-0.25 2.984 0.422l0.344-0.344c0.094-0.094 0.25-0.094 0.344 0l0.656 0.656c0.094 0.094 0.094 0.25 0 0.344l-4.906 4.906c-0.094 0.094-0.25 0.094-0.344 0l-0.656-0.656c-0.094-0.094-0.094-0.25 0-0.344l0.344-0.344c-0.75-0.953-0.844-2.266-0.266-3.313-0.359-0.344-0.844-0.547-1.375-0.547-1.109 0-2 0.891-2 2v10h23.5c0.281 0 0.5 0.219 0.5 0.5zM14 7.5c0 0.281-0.219 0.5-0.5 0.5s-0.5-0.219-0.5-0.5 0.219-0.5 0.5-0.5 0.5 0.219 0.5 0.5zM13 6.5c0 0.281-0.219 0.5-0.5 0.5s-0.5-0.219-0.5-0.5 0.219-0.5 0.5-0.5 0.5 0.219 0.5 0.5zM12 5.5c0 0.281-0.219 0.5-0.5 0.5s-0.5-0.219-0.5-0.5 0.219-0.5 0.5-0.5 0.5 0.219 0.5 0.5zM15 6.5c0 0.281-0.219 0.5-0.5 0.5s-0.5-0.219-0.5-0.5 0.219-0.5 0.5-0.5 0.5 0.219 0.5 0.5zM14 5.5c0 0.281-0.219 0.5-0.5 0.5s-0.5-0.219-0.5-0.5 0.219-0.5 0.5-0.5 0.5 0.219 0.5 0.5zM13 4.5c0 0.281-0.219 0.5-0.5 0.5s-0.5-0.219-0.5-0.5 0.219-0.5 0.5-0.5 0.5 0.219 0.5 0.5zM16 5.5c0 0.281-0.219 0.5-0.5 0.5s-0.5-0.219-0.5-0.5 0.219-0.5 0.5-0.5 0.5 0.219 0.5 0.5zM15 4.5c0 0.281-0.219 0.5-0.5 0.5s-0.5-0.219-0.5-0.5 0.219-0.5 0.5-0.5 0.5 0.219 0.5 0.5zM17 4.5c0 0.281-0.219 0.5-0.5 0.5s-0.5-0.219-0.5-0.5 0.219-0.5 0.5-0.5 0.5 0.219 0.5 0.5z"></path>
</symbol>
</defs>
</svg>
